<?xml version="1.0" encoding="utf-8"?>
<!-- Generator: Adobe Illustrator 21.1.0, SVG Export Plug-In . SVG Version: 6.00 Build 0)  -->
<svg version="1.1" id="圖層_1" xmlns="http://www.w3.org/2000/svg" xmlns:xlink="http://www.w3.org/1999/xlink" x="0px" y="0px"
	 viewBox="0 0 12.4 18.5" style="enable-background:new 0 0 12.4 18.5;" xml:space="preserve">
<style type="text/css">
	.st0{fill:#895737;}
	.st1{fill:#B4C1CA;}
</style>
<title>arrow_2</title>
<path class="st0" d="M11.2,6.7L4.6,1.2C3.5,0.3,2,0.5,1.1,1.5C0.2,2.6,0.4,4.2,1.4,5.1L6.2,9l-3.9,4.7c-0.9,1.1-0.7,2.6,0.3,3.5
	c0.5,0.4,1.2,0.6,1.8,0.6s1.3-0.4,1.7-0.9l5.5-6.6c0.5-0.5,0.6-1.2,0.6-1.9C12.1,7.8,11.8,7.1,11.2,6.7z"/>
<path class="st0" d="M-14.2,8.7l6.1-6.1c1-1,2.6-1,3.5,0c1,1,1,2.6,0,3.5l-4.3,4.3l4.3,4.3c1,1,1,2.6,0,3.5
	c-0.5,0.5-1.1,0.7-1.8,0.7s-1.3-0.2-1.8-0.7l-6.1-6.1c-0.5-0.5-0.7-1.2-0.7-1.8C-14.9,9.9-14.7,9.2-14.2,8.7z"/>
<g>
	<path class="st1" d="M27.1,26.9c-0.5-0.5-0.8-1.1-0.8-1.8c0-0.6,0.2-1.3,0.7-1.8c0.5-0.5,1.1-0.8,1.8-0.8c0.6,0,1.3,0.2,1.8,0.7
		l4.3,4.2l8.6-10.9l0.3,0.2l-0.3-0.2c0,0,0.1-0.1,0.1-0.1c0.5-0.4,1.2-0.6,1.8-0.6v0l0,0c0.6,0,1.2,0.3,1.7,0.8
		c0.5,0.5,0.7,1.2,0.6,1.8h0l0,0c0,0.6-0.3,1.2-0.8,1.7L36.6,32.7l0,0c0,0,0,0-0.1,0.1c-0.5,0.4-1.1,0.6-1.7,0.6
		c-0.6,0-1.2-0.2-1.7-0.7L27.1,26.9L27.1,26.9z"/>
</g>
<g>
	<path class="st0" d="M6.8,59.3l-6.1-6.1c-1-1-2.6-1-3.5,0c-1,1-1,2.6,0,3.5l4.3,4.3l-4.3,4.3c-1,1-1,2.6,0,3.5
		c0.5,0.5,1.1,0.7,1.8,0.7s1.3-0.2,1.8-0.7l6.1-6.1c0.5-0.5,0.7-1.2,0.7-1.8C7.5,60.4,7.3,59.8,6.8,59.3z"/>
	<g>
		<path class="st0" d="M10.8,69.8c-0.8,0-1.5-0.7-1.5-1.5V54c0-0.8,0.7-1.5,1.5-1.5s1.5,0.7,1.5,1.5v14.3
			C12.3,69.1,11.7,69.8,10.8,69.8z"/>
	</g>
</g>
<g>
	<path class="st0" d="M2,81.8l6.1-6.1c1-1,2.6-1,3.5,0c1,1,1,2.6,0,3.5l-4.3,4.3l4.3,4.3c1,1,1,2.6,0,3.5c-0.5,0.5-1.1,0.7-1.8,0.7
		S8.6,92,8.1,91.5L2,85.4c-0.5-0.5-0.7-1.2-0.7-1.8C1.3,82.9,1.5,82.3,2,81.8z"/>
	<g>
		<path class="st0" d="M-2,92.3c0.8,0,1.5-0.7,1.5-1.5V76.5c0-0.8-0.7-1.5-1.5-1.5s-1.5,0.7-1.5,1.5v14.3C-3.5,91.6-2.9,92.3-2,92.3
			z"/>
	</g>
</g>
</svg>
