<?xml version="1.0" encoding="utf-8"?>
<!-- Generator: Adobe Illustrator 21.1.0, SVG Export Plug-In . SVG Version: 6.00 Build 0)  -->
<svg version="1.1" id="圖層_1" xmlns="http://www.w3.org/2000/svg" xmlns:xlink="http://www.w3.org/1999/xlink" x="0px" y="0px"
	 viewBox="0 0 21.4 17.6" style="enable-background:new 0 0 21.4 17.6;" xml:space="preserve">
<style type="text/css">
	.st0{fill:#B4C1CA;}
</style>
<title>check_mark</title>
<g id="圖層_2">
	<g id="圖層_1-2">
		<path class="st0" d="M0.8,11.1c-1-1-1-2.6-0.1-3.5s2.6-1,3.5-0.1l0,0l4.3,4.2l8.6-10.9l0.3,0.2l-0.3-0.2l0.1-0.1
			C17.7,0.2,18.4,0,19,0l0,0c1.4,0.1,2.4,1.3,2.3,2.6l0,0l0,0c0,0.6-0.3,1.2-0.8,1.7L10.3,16.9l0,0L10.2,17c-1,0.9-2.5,0.8-3.4-0.1
			L0.8,11.1L0.8,11.1z"/>
	</g>
</g>
</svg>
