<svg xmlns="http://www.w3.org/2000/svg" viewBox="0 0 27.1 25.21"><defs><style>.cls-1{fill:#895737;}</style></defs><title>line</title><g id="圖層_2" data-name="圖層 2"><g id="圖層_1-2" data-name="圖層 1"><path class="cls-1" d="M0,10.85c0,5.36,4.77,9.87,11.29,10.72a1.3,1.3,0,0,1,.54.18,10.4,10.4,0,0,1-.21,1.76c-.22,1.38.72,2.11,2.29,1.46s7.56-4.36,10.29-7.43c3-3.21,3.72-7.09,2-10.64C20.69-4.3,0-1.07,0,10.85Zm22.9,5.68c-2.49,2.8-8.07,6.3-9.58,7,.19-1.45.77-3-1.73-3.47-5.73-.74-9.89-4.6-9.89-9.17,0-10.22,18.21-13,22.94-3.29,1.45,3,.82,6.22-1.74,9Z"/><path class="cls-1" d="M8.54,13.28H7.18V8.6a.85.85,0,0,0-1.69,0v5.52a.85.85,0,0,0,.85.85H8.54A.85.85,0,0,0,8.54,13.28Z"/><path class="cls-1" d="M9.9,8.6c.25,4.25-.62,6.37.85,6.37a.85.85,0,0,0,.85-.85V8.6a.85.85,0,0,0-1.69,0Z"/><path class="cls-1" d="M20.69,9.45a.85.85,0,0,0,0-1.69H18.48a.85.85,0,0,0-.85.85v5.52a.85.85,0,0,0,.85.85h2.21a.85.85,0,0,0,0-1.69H19.33V12.21h1.36a.85.85,0,0,0,0-1.69H19.33V9.45Z"/><path class="cls-1" d="M15.43,8.6v2.47l-1.74-2.9a.85.85,0,0,0-1.57.44v5.52a.85.85,0,0,0,1.69,0V11.66l1.74,2.9a.85.85,0,0,0,.73.41.86.86,0,0,0,.23,0,.85.85,0,0,0,.62-.82V8.6a.85.85,0,0,0-1.69,0Z"/></g></g></svg>