<svg xmlns="http://www.w3.org/2000/svg" viewBox="0 0 99.76 56.96"><defs><style>.cls-1{fill:#5e3023;}</style></defs><title>logo-yuju</title><g id="圖層_2" data-name="圖層 2"><g id="圖層_1-2" data-name="圖層 1"><g id="圖層_2-2" data-name="圖層 2"><g id="圖層_1-2-2" data-name="圖層 1-2"><path class="cls-1" d="M1,37H1a1.19,1.19,0,0,1-.15.31c-.08.1-.23.21-.53,0l-.07,0a1.81,1.81,0,0,1-.11-.9A2.77,2.77,0,0,1,.2,36a.23.23,0,0,1,.06-.19v-.09h0v-.13c0-.1.09-.2.13-.3a5.54,5.54,0,0,1,.3-.56,15.08,15.08,0,0,1,1.46-2,63.23,63.23,0,0,1,7-6.73c2.47-2.09,5-4.08,7.58-6q7.81-5.9,15.93-11.21c2.7-1.77,5.43-3.49,8.21-5.13,1.4-.81,2.8-1.61,4.26-2.33.37-.18.73-.36,1.11-.52l.57-.24L47,.5H47c.2.3-.39-.68.46.66l-.21.21c-.55.57-1.08,1.17-1.61,1.77q-3.17,3.63-6,7.54a57.27,57.27,0,0,0-5,8.16h0A16.38,16.38,0,0,0,33,24.3a4.28,4.28,0,0,0,.56,2.65,3.36,3.36,0,0,0,2.16,1.43,5.07,5.07,0,0,0,2.72-.24A10.86,10.86,0,0,0,41,26.81a26.7,26.7,0,0,0,4.37-3.91,72.92,72.92,0,0,0,7.17-9.44Q54.13,11,55.62,8.4q.75-1.28,1.46-2.59l.7-1.31.34-.66.17-.33c-.15-.09,1.39.67.73.36h0v.08l-.08.17a142.21,142.21,0,0,0-8.4,22.25c-.53,1.91-1,3.84-1.47,5.75S48.41,36,48.13,38A100.36,100.36,0,0,1,46,49.78h0a25,25,0,0,1-1.91,5.09q-.16.3-.34.6l-.29.46-.18.27-.09.14v.07h-.06l-.59-.4-.22-.22-.12-.13a6.13,6.13,0,0,1-.45-.56,8.93,8.93,0,0,1-1.21-2.51,17.09,17.09,0,0,1-.68-5.42,26.66,26.66,0,0,1,.68-5.39,26.25,26.25,0,0,1,1.74-5.15,16.9,16.9,0,0,1,3-4.57,9.58,9.58,0,0,1,2.17-1.76,6.51,6.51,0,0,1,5.5-.51,3,3,0,0,1,1.27.83,6.91,6.91,0,0,1,.86,1.13c1,1.57,1.57,3.29,2.49,4.72a2.85,2.85,0,0,0,.79.84.78.78,0,0,0,.86,0,3.28,3.28,0,0,0,.86-.8,9.78,9.78,0,0,0,.73-1.06A24.45,24.45,0,0,0,62,33.11l.27-.6.13-.3.12-.11V32c-.69-.15,1,.15.79.15h0a10.5,10.5,0,0,0,.08,1.29,4.33,4.33,0,0,0,.3,1.18,1,1,0,0,0,.66.66,1.53,1.53,0,0,0,1-.22,5.31,5.31,0,0,0,1-.72,13.53,13.53,0,0,0,3-4.17l.13-.29.06-.15v-.07h0c.35.08-.77-.24.79.18l-.1.66-.19,1.32c-.12.88-.21,1.76-.29,2.65-.31,3.54-.35,7.1-.36,10.67V47.3c.72,0-1,.09-.81.06V47a25.89,25.89,0,0,1-.16-2.72A20.66,20.66,0,0,1,69,38.82a9,9,0,0,1,1.11-2.62,5.21,5.21,0,0,1,.95-1.1,4.1,4.1,0,0,1,.6-.43l.53-.37a10.37,10.37,0,0,1,1.2-.71,4.47,4.47,0,0,1,1.4-.46,1.94,1.94,0,0,1,.84.07,1.43,1.43,0,0,1,.41.22,1.08,1.08,0,0,1,.37.46v1.36a7.56,7.56,0,0,0,.6,2.45c.33.75.9,1.39,1.59,1.37a1.69,1.69,0,0,0,.53-.09,5.65,5.65,0,0,0,.57-.24,2.06,2.06,0,0,0,.86-.7,6.48,6.48,0,0,1,1-1.06,2.67,2.67,0,0,1,.67-.41,1.62,1.62,0,0,1,.44-.11,1,1,0,0,1,.43.06l1.32.35,1.29.33q1.29.31,2.6.56a29.19,29.19,0,0,0,5.25.55h2.66c.39,0,1.18-.1,1.79-.18s1-.13.91,0a2.15,2.15,0,0,1-.82.46,11.24,11.24,0,0,1-1.77.5l-.4.08h-.58l-1,.06a26.83,26.83,0,0,1-5.23-.38c-1.72-.28-3.42-.68-5.09-1.12l-1.18-.42c-.2-.07-.56.13-.84.37a6.07,6.07,0,0,0-.81.88,2.87,2.87,0,0,1-1.15.94l-.3.13-.34.14a2.53,2.53,0,0,1-.75.14,2.14,2.14,0,0,1-1.46-.54,4.88,4.88,0,0,1-1.34-2.45,8.87,8.87,0,0,1-.29-2.69v-.14h-.06a.75.75,0,0,0-.39-.12,2.59,2.59,0,0,0-1.07.24,7.69,7.69,0,0,0-1.08.58l-.52.35-.26.18-.16.11-.12.08a4.55,4.55,0,0,0-1.49,1.8,13.58,13.58,0,0,0-1.13,4.86,25.24,25.24,0,0,0,.15,5.08h0c.73,0-1,.09-.81.06V42.22a90.94,90.94,0,0,1,.62-10.37l.26-1.29.1-.64v-.16c.35.08-.78-.25.79.18h0V30l-.13.31A14,14,0,0,1,69,32.65a13.77,13.77,0,0,1-1.71,2,7.66,7.66,0,0,1-1.06.87,3.34,3.34,0,0,1-1.35.57A1.68,1.68,0,0,1,64,36a1.65,1.65,0,0,1-.68-.51,3.28,3.28,0,0,1-.59-1.35,8.2,8.2,0,0,1-.22-1.28v-.67c.35.06-.78-.2.78.13h0v.07l-.06.15-.13.3c-.35.8-.73,1.58-1.15,2.36a10.74,10.74,0,0,1-1.52,2.22,2.65,2.65,0,0,1-1.28.81,1.51,1.51,0,0,1-.87-.06,2.11,2.11,0,0,1-.67-.43,8.23,8.23,0,0,1-1.49-2.28c-.39-.78-.74-1.57-1.14-2.32a8.29,8.29,0,0,0-1.37-2,2.62,2.62,0,0,0-.44-.35,2,2,0,0,0-.5-.22,6.39,6.39,0,0,0-1.27-.27,5.53,5.53,0,0,0-2.38.21,8.48,8.48,0,0,0-3.9,2.91,18.22,18.22,0,0,0-2.52,4.37,26.18,26.18,0,0,0-1.48,4.87,25.1,25.1,0,0,0-.52,5.06,15.26,15.26,0,0,0,.76,5,7.58,7.58,0,0,0,1.15,2.11l.19.23.1.11.07.07h0l.16-.27q.16-.27.3-.55a24.52,24.52,0,0,0,1.76-4.76h0A99.59,99.59,0,0,0,47.24,38c.28-2,.55-3.95,1-5.92s1-3.88,1.49-5.81A143,143,0,0,1,58.12,3.85l.08-.17V3.6h0c-.65-.33.9.42.74.35l-.17.34L58.42,5l-.71,1.32Q57,7.59,56.23,8.89q-1.51,2.59-3.14,5.1a73.75,73.75,0,0,1-7.25,9.55,27.5,27.5,0,0,1-4.51,4A11.65,11.65,0,0,1,38.59,29a5.88,5.88,0,0,1-3.16.26,4.17,4.17,0,0,1-2.68-1.79,5.08,5.08,0,0,1-.59-3.13A17.11,17.11,0,0,1,34,18.49h0a58.11,58.11,0,0,1,5.09-8.28q2.84-3.94,6-7.6C45.6,2,46.14,1.4,46.71.81l.22-.22c.84,1.35.21.38.39.68h-.07l-.14,0-.54.22L45.49,2c-1.43.71-2.83,1.5-4.21,2.31C38.51,6,35.79,7.69,33.1,9.45Q25,14.74,17.32,20.55c-2.56,1.94-5.09,3.93-7.54,6A62.52,62.52,0,0,0,2.86,33.2a14.33,14.33,0,0,0-1.38,1.9,4.82,4.82,0,0,0-.27.5l-.11.25V36h0v.22a1.93,1.93,0,0,0-.06.29A1,1,0,0,0,1,37Z"/><path class="cls-1" d="M1.08,37c-.05.12-.11.24-.17.36h0a.39.39,0,0,1-.35.16.71.71,0,0,1-.32-.13h.1l-.09,0a.09.09,0,0,1-.11-.05h0A1.92,1.92,0,0,1,0,36.65,3.43,3.43,0,0,1,.1,36v0a.34.34,0,0,1,.09-.27l0,.08v-.24a.63.63,0,0,1,.1-.26l.21-.41A7.84,7.84,0,0,1,1,34.1a15.06,15.06,0,0,1,1.13-1.48q1.23-1.38,2.54-2.69A59.83,59.83,0,0,1,10.14,25l5.78-4.6c1.93-1.52,3.93-3,5.92-4.43,4-2.88,8-5.7,12.2-8.33l6.26-3.93c1-.65,2.16-1.21,3.23-1.81A26.32,26.32,0,0,1,46.87.26l.1,0H47a.24.24,0,0,1,.21.11l0,0h0l0,0a.26.26,0,0,0-.23,0c-.18.1-.14.13-.17.18a.25.25,0,0,0,0,.14h0v0l0-.07v0h0A.26.26,0,0,1,47,.17h.06a.27.27,0,0,1,.12.05l.05.06,0,0,.15.23.29.46a.26.26,0,0,1,0,.31h0c-1.93,2-3.74,4.22-5.48,6.45a77.47,77.47,0,0,0-4.87,6.92q-1.1,1.8-2.07,3.68a17.24,17.24,0,0,0-1.55,3.87,16.28,16.28,0,0,0-.39,2,3.94,3.94,0,0,0,.25,1.92,2.79,2.79,0,0,0,1.2,1.43,3.47,3.47,0,0,0,1.86.46,7.38,7.38,0,0,0,3.76-1.34,25,25,0,0,0,3.24-2.63,58.07,58.07,0,0,0,5.46-6.42,80.3,80.3,0,0,0,4.66-7.05c1.5-2.39,2.89-4.84,4.17-7.36l.16.56,0,0h0l0,0-.1-.15.17-.52c.28-.12.27,0,.31-.06h.06l.05,0,0,0,.07,0,.14.07.27.13.27.14.07,0,.06,0,0,0h0l.07.07.09.24-.33.45a.38.38,0,0,1-.23,0H59l-.15-.07.62-.39v.08a.44.44,0,0,1,0,.18q-2.94,6.21-5.28,12.66a121.26,121.26,0,0,0-4,13.12c-.27,1.11-.59,2.22-.81,3.31s-.36,2.23-.51,3.37c-.3,2.27-.57,4.56-1,6.83S47,47.94,46.45,50.2a25.65,25.65,0,0,1-1.13,3.32c-.23.54-.47,1.07-.74,1.6s-.61,1-.92,1.51l.09-.3v.07a.55.55,0,0,1-.55.55h-.06a.55.55,0,0,1-.31-.1l-.59-.4-.07-.05h0a10.24,10.24,0,0,1-2.67-6,23,23,0,0,1,.08-6.5,27.79,27.79,0,0,1,1.66-6.26A18.68,18.68,0,0,1,44.52,32a10.37,10.37,0,0,1,2.54-2.18,7.13,7.13,0,0,1,3.29-1,7,7,0,0,1,1.73.11,6,6,0,0,1,1.69.57,3.62,3.62,0,0,1,.76.57,7.53,7.53,0,0,1,.58.66A11.51,11.51,0,0,1,56,32.12c.54,1,1,1.95,1.43,2.86a12.18,12.18,0,0,0,.75,1.29,2.23,2.23,0,0,0,.43.44c.11.08.09.06.12.08h.07a5.46,5.46,0,0,0,1.63-2.06c.46-.92,1-1.81,1.37-2.79a.59.59,0,0,1,.14-.21h0l.12-.11-.21.48V32l.51.64-.18,0-.11,0h0l-.07,0-.14-.14-.12-.49.28-.44.19-.09.09,0h.32l.31.05.3.06.16,0,.09,0,.09,0,.05,0h0a.67.67,0,0,1,.15.1A.65.65,0,0,1,64,32a.66.66,0,0,1-.52.8h-.13l.65-.65.08,1.18a3.6,3.6,0,0,0,.26,1l0,.06a.34.34,0,0,0,.23.22l-.11,0a.87.87,0,0,0,.54-.11,4.9,4.9,0,0,0,.73-.49A11.29,11.29,0,0,0,67,32.7a12.75,12.75,0,0,0,1.93-3.21l0,.25v-.07a.67.67,0,0,1,.67-.68h-.05a.66.66,0,0,0-.19.07.67.67,0,0,0-.23,1,.66.66,0,0,0,.15.15l.08.05h0l-.1,0h0a.68.68,0,0,1-.23-1.1.69.69,0,0,1,.17-.13.71.71,0,0,1,.44-.07h.08l.28.07.54.14A.68.68,0,0,1,71,30c-.23,1.44-.39,2.87-.53,4.3s-.22,2.88-.27,4.32c-.1,2.89-.1,5.8-.09,8.71l-.71-.71h.3l.07,0h0a.66.66,0,0,1,.32.23.72.72,0,0,1,.14.59.71.71,0,0,1-.2.37c-.15.13-.12.09-.14.1l0,0-.06,0-.13,0-.1,0h-.1l-.32,0-.31,0h-.36l-.15,0-.08,0,0,0s-.2,0-.37-.45a.73.73,0,0,1,.15-.66.7.7,0,0,1,.25-.18l.09,0h0l.08,0-.6.7V47c-.06-1.13-.17-2.26-.18-3.39A21.3,21.3,0,0,1,68,40.24c.09-.57.21-1.12.35-1.68a9.7,9.7,0,0,1,.6-1.68A6.14,6.14,0,0,1,71.32,34l0,0a11.88,11.88,0,0,1,1.19-.76,6.39,6.39,0,0,1,1.35-.68,5.16,5.16,0,0,1,.77-.2,2.7,2.7,0,0,1,.92,0,2.33,2.33,0,0,1,.92.36,1.76,1.76,0,0,1,.72.83h0a.77.77,0,0,1,.06.28v1.31a6.8,6.8,0,0,0,.55,2.21,2.15,2.15,0,0,0,.52.75.63.63,0,0,0,.25.14s.16,0,.28,0a1.45,1.45,0,0,0,.46-.16,1.71,1.71,0,0,0,.41-.21A1.28,1.28,0,0,0,80,37.6c.14-.19.29-.37.45-.55a5.42,5.42,0,0,1,1.12-1,2.41,2.41,0,0,1,.81-.33,1.66,1.66,0,0,1,1.06,0l-.07,0c1.29.34,2.58.69,3.87.94a31,31,0,0,0,3.87.66A33.18,33.18,0,0,0,95,37.5a13.3,13.3,0,0,0,2-.08l.94-.1.52-.06.31,0a1.49,1.49,0,0,1,.27,0,.86.86,0,0,1,.69.5.81.81,0,0,1,.07.4.76.76,0,0,1-.06.26,1,1,0,0,1-.09.16.73.73,0,0,1-.11.13h0a3,3,0,0,1-.93.57c-.3.11-.55.16-.83.25-.53.14-1.1.34-1.61.42h-.89l-.74,0c-.54,0-1,0-1.56,0a27.5,27.5,0,0,1-3.09-.25c-1-.13-2-.4-3-.6l-3-.65h-.07l-.8-.28-.2-.07-.1,0-.05,0h0l.06,0c.32,0,.2,0,.17,0a1.4,1.4,0,0,0-.44.39l-.49.53a3.82,3.82,0,0,1-1.69,1.29l-.42.18a3.17,3.17,0,0,1-1.73.16A3,3,0,0,1,77,40.24a2.66,2.66,0,0,1-.46-.39c-.12-.13-.23-.25-.33-.38a5.75,5.75,0,0,1-1-1.75c-.11-.33-.17-.62-.24-.9s-.13-.61-.17-.92a10.83,10.83,0,0,1-.08-1.81l.87.87h-.06l-.47-.14s.11,0,0,0a1.72,1.72,0,0,0-.34.05,1.61,1.61,0,0,0-.33.12l-.4.22a12.85,12.85,0,0,0-1.63,1,3.67,3.67,0,0,0-1.06,1.26,11.74,11.74,0,0,0-.65,1.77,15.31,15.31,0,0,0-.51,3.86,24.48,24.48,0,0,0,.2,4l-.9-.79h.26l.13,0a.92.92,0,0,1,.42,1.55.67.67,0,0,1-.14.11l-.07,0a1,1,0,0,1-.31.1h-.14l-.33,0-.31,0h-.34a1,1,0,0,1-.32-.06l-.08,0a.87.87,0,0,1-.34-.31.92.92,0,0,1-.12-.74.91.91,0,0,1,.39-.53.89.89,0,0,1,.36-.14l-.77.9c0-2.58,0-5.15,0-7.77s.26-5.21.56-7.79v-.07h0c.12-.63.27-1.27.35-1.89v0a1,1,0,0,1,1-1l.18,0h-.18l-.13,0a.91.91,0,0,0-.56.36,1,1,0,0,0-.18.75.94.94,0,0,0,.21.44.91.91,0,0,0,.25.21h0l0,0,0,0h0l-.11,0h0a1,1,0,0,1-.24-.15,1,1,0,0,1-.32-.9.9.9,0,0,1,.23-.46,1,1,0,0,1,.72-.32h.19l.07,0,.29.08.54.15a1,1,0,0,1,.71.92h0V30a.94.94,0,0,1-.07.36v0a14.65,14.65,0,0,1-1.68,3A12,12,0,0,1,67.23,36a4.46,4.46,0,0,1-1.71,1,2.89,2.89,0,0,1-1.19.13,2.54,2.54,0,0,1-1.21-.47,2.84,2.84,0,0,1-.8-.91,4.25,4.25,0,0,1-.42-1c-.17-.64-.22-1.18-.34-1.78v-.76a1,1,0,0,1,1-1h-.05a1,1,0,0,0-.5.21,1,1,0,0,0-.17,1.37A1,1,0,0,0,62,33a1,1,0,0,0,.15.09h0l0,0,0,0h0l-.11,0,0,0a1,1,0,0,1,.07-1.87,1,1,0,0,1,.42,0h.09l.3.06.54.11a1,1,0,0,1,.79,1v.09a.91.91,0,0,1-.07.35c-.43,1-.92,1.93-1.38,2.9A11.8,11.8,0,0,1,62,37.1q-.25.35-.52.67l-.28.32a3.64,3.64,0,0,1-1.29.93,3.06,3.06,0,0,1-.57.18,2.52,2.52,0,0,1-.64,0,2.86,2.86,0,0,1-2-1.1,9.26,9.26,0,0,1-1-1.43c-.14-.25-.28-.52-.39-.77L55,35.27a25.79,25.79,0,0,0-1.37-2.62c-.13-.19-.27-.37-.41-.55L53,31.85c-.06-.06-.12-.09-.18-.14s-.25-.11-.37-.2l-.66-.14a4.21,4.21,0,0,0-2.52.13,7.48,7.48,0,0,0-2.31,1.44C44.24,35.62,42.71,39.6,42,43.5a24.17,24.17,0,0,0-.34,3,19.53,19.53,0,0,0,0,3,14.22,14.22,0,0,0,.59,2.84,6.21,6.21,0,0,0,1.31,2.27l-1.56.2a21.78,21.78,0,0,0,2.28-6q.77-3.26,1.31-6.56c.38-2.19.59-4.41,1-6.68l.54-3.37c.23-1.11.55-2.21.82-3.32a123.4,123.4,0,0,1,4.07-13c1.58-4.25,3.35-8.43,5.31-12.51l-.09.39V3.6l.5.81-.15-.08,0,0-.06,0-.09-.07-.21-.26.28-1.17.54-.17h.23l.09,0,.08,0,.08,0,.28.13.27.13.14.07.07,0,0,0,0,0,0,0h0l.11.09-.67,1.57c-.35-.06-.21-.05-.24-.05h0l-.06,0,1.17-.42c-1.5,3-3.23,5.77-5,8.56A72.92,72.92,0,0,1,49.07,21C48,22.31,47,23.56,45.8,24.78A28.22,28.22,0,0,1,42,28.07a12.42,12.42,0,0,1-2.27,1.3,7.83,7.83,0,0,1-2.61.72,6.05,6.05,0,0,1-2.77-.4,5,5,0,0,1-2.21-1.83h0l0,0a5.83,5.83,0,0,1-.68-2.15,7.3,7.3,0,0,1,.13-2.17,17.86,17.86,0,0,1,1.16-3.93,53.21,53.21,0,0,1,3.92-7c1.48-2.22,3.07-4.31,4.7-6.39s3.34-4.08,5.21-6a.58.58,0,0,1,.81,0,.64.64,0,0,1,.09.12l.29.47.15.25,0,.05h0A.6.6,0,0,1,48,1.3a.58.58,0,0,1-1,.41l0,0-.06-.08,0,0h0a.52.52,0,0,0,.15.12.56.56,0,0,0,.51,0,.58.58,0,0,0,.35-.48c0-.3,0-.22,0-.24s0,0,0,0l-.49.87h-.07l.19,0c-.53.19-1.08.45-1.61.69l-1.58.85c-1,.58-2.12,1.11-3.15,1.74L34.93,8.89c-4.11,2.54-8.11,5.27-12.06,8-2,1.4-3.94,2.8-5.86,4.27l-5.71,4.46a60.87,60.87,0,0,0-5.49,4.72Q4.49,31.63,3.26,33A11.65,11.65,0,0,0,1.2,35.89v.31h0l-.06.27h0a.9.9,0,0,0-.07.33Zm-.2,0a.55.55,0,0,1,0-.12,1.1,1.1,0,0,1,.07-.41v0L1,36.15v-.3a.11.11,0,0,1,0,0,11.87,11.87,0,0,1,2-3q1.21-1.36,2.5-2.65A61.25,61.25,0,0,1,11,25.29l5.65-4.58c1.9-1.51,3.85-2.94,5.8-4.38,3.92-2.85,7.87-5.67,12-8.26l6.16-3.89c1-.64,2.12-1.2,3.18-1.81A22.71,22.71,0,0,1,47.06.73a.54.54,0,0,1,.18,0h.08l-.49.87a.83.83,0,0,1-.08-.17s0,.06,0-.24a.58.58,0,0,1,.35-.48.57.57,0,0,1,.51,0,.54.54,0,0,1,.15.12v0l0,0,0,0,0,0,0,0v0a.57.57,0,0,0-.73-.1.58.58,0,0,0-.28.51.57.57,0,0,0,.06.24h0l-.13-.22L46.43.9l.91.1c-1.77,1.87-3.44,3.9-5,6s-3.15,4.18-4.56,6.35A52.15,52.15,0,0,0,34,20.11a16.39,16.39,0,0,0-1,3.62,5.81,5.81,0,0,0-.09,1.75,4.37,4.37,0,0,0,.52,1.58l0-.05a3.4,3.4,0,0,0,1.52,1.25,4.53,4.53,0,0,0,2,.27,6.25,6.25,0,0,0,2.09-.61,10.81,10.81,0,0,0,2-1.15,26.6,26.6,0,0,0,3.59-3.12c1.08-1.15,2.14-2.41,3.15-3.67a71.22,71.22,0,0,0,5.53-8c1.71-2.77,3.4-5.56,4.83-8.45l1.17-.42,0,0h0s.11,0-.24-.05l-.67,1.57.11.09h0l0,0h0l-.06,0-.13-.06L58,4.51l-.26-.12-.06,0h0l.08,0H58l.54-.17.28-1.17-.21-.26-.09-.07,0,0h0l.11.06a.92.92,0,0,1,.5.81v.08a.92.92,0,0,1-.09.39q-2.88,6.08-5.16,12.39a123.82,123.82,0,0,0-3.93,12.81c-.27,1.08-.58,2.15-.81,3.24l-.53,3.3c-.39,2.17-.61,4.44-1,6.69s-.82,4.48-1.34,6.69a23.67,23.67,0,0,1-2.5,6.57v0a1,1,0,0,1-1.33.36,1,1,0,0,1-.22-.18,8.07,8.07,0,0,1-1.8-3.07,16.19,16.19,0,0,1-.68-3.25,21.46,21.46,0,0,1,0-3.27A26.16,26.16,0,0,1,40,43.15,27.67,27.67,0,0,1,41.89,37a19.17,19.17,0,0,1,1.56-2.89c.3-.45.63-.91,1-1.33a9.47,9.47,0,0,1,4.11-3.11,6.16,6.16,0,0,1,3.6-.22l.86.19a3.34,3.34,0,0,1,1,.52,5.09,5.09,0,0,1,.42.35l.3.34c.19.22.36.46.53.69a26.35,26.35,0,0,1,1.52,2.89l.35.71c.1.23.2.42.32.62a7.27,7.27,0,0,0,.79,1.12c.52.54.69.53,1.34.09l.18-.17.23-.27q.23-.27.43-.56a9.79,9.79,0,0,0,.74-1.21c.43-.91.91-1.82,1.3-2.72l-.07.37v-.07l.79,1-.53-.11-.24,0h0a1,1,0,0,0,.48-1.9h0l.05,0,.07,0,.06,0h0a1,1,0,0,1,.37.3A1,1,0,0,1,63.23,33a1,1,0,0,1-.5.21h-.36l1.16-1v.58c.09.46.16,1,.26,1.41a1.76,1.76,0,0,0,.47.83.56.56,0,0,0,.29.11.91.91,0,0,0,.41-.06A2.62,2.62,0,0,0,66,34.43a10.12,10.12,0,0,0,2.05-2.15,12.73,12.73,0,0,0,1.48-2.63l-.07.37v-.08l.71.92-.53-.15-.24-.06h0l.17,0a1,1,0,0,0,.93-.78,1,1,0,0,0-.31-.9,1,1,0,0,0-.24-.15h0l.05,0,.07,0,.06,0h0a.93.93,0,0,1,.25.21,1,1,0,0,1,.21.45,1,1,0,0,1-.18.75.91.91,0,0,1-.56.36l-.12,0h-.37l1.17-.93v.16a1,1,0,0,1,0,.13v0c-.09.67-.24,1.32-.37,2V32q-.46,3.8-.59,7.63c-.09,2.54,0,5.13-.06,7.71l-.77.9a.84.84,0,0,0,.35-.14.91.91,0,0,0,.38-.53.92.92,0,0,0-.12-.74.85.85,0,0,0-.35-.31l-.08,0a.81.81,0,0,0-.28-.06h.47l.27,0h0a.81.81,0,0,0-.27.09l-.06,0-.14.11a.89.89,0,0,0-.19.25A.91.91,0,0,0,69.16,48a.88.88,0,0,0,.26.11l.12,0h-.08a.91.91,0,0,1-.9-.79,26.29,26.29,0,0,1-.2-4.26A17.15,17.15,0,0,1,69,38.8a13.14,13.14,0,0,1,.79-2.09,5.43,5.43,0,0,1,1.59-1.86,14.61,14.61,0,0,1,1.85-1.16l.51-.27a3.34,3.34,0,0,1,.63-.23,3.46,3.46,0,0,1,.68-.1,1.66,1.66,0,0,1,1,.26l-.47-.14h.11a.83.83,0,0,1,.83.83v0a8.74,8.74,0,0,0,.38,3.09,4,4,0,0,0,.66,1.23l.23.26a.91.91,0,0,0,.19.16,1.27,1.27,0,0,0,.47.2,1.29,1.29,0,0,0,.52,0,1.38,1.38,0,0,0,.26-.07l.36-.15a2.08,2.08,0,0,0,1-.74l.66-.72a2.79,2.79,0,0,1,.86-.69,1.42,1.42,0,0,1,1-.17l.12,0h0l.05,0,.1,0,.2.07.8.29-.07,0,2.9.64c1,.2,1.93.47,2.9.6A25.86,25.86,0,0,0,93,38.4c.48,0,1,0,1.45,0l.76,0H96l-.16,0c.54-.09,1-.26,1.48-.38.23-.07.51-.13.7-.2a1.35,1.35,0,0,0,.43-.26l-.12.14a.66.66,0,0,0-.07.13.77.77,0,0,0,0,.6.78.78,0,0,0,.23.29.62.62,0,0,0,.32.15h0l-.19,0-.48.06-1.06.1a14.63,14.63,0,0,1-2.05.07,34.74,34.74,0,0,1-4.1-.16,32.53,32.53,0,0,1-4-.7c-1.34-.27-2.64-.63-3.93-1l-.07,0c-.06,0-.06,0-.18,0a.87.87,0,0,0-.36.14,4.07,4.07,0,0,0-.78.69,5.55,5.55,0,0,0-.36.43,2.82,2.82,0,0,1-.61.61,3.15,3.15,0,0,1-.71.38,2.74,2.74,0,0,1-.74.24l-.46.07a1.8,1.8,0,0,1-.52-.06,2.14,2.14,0,0,1-.86-.45A3.61,3.61,0,0,1,76.35,38a8.31,8.31,0,0,1-.66-2.71V33.88l.06.29a.67.67,0,0,0-.49-.3,1.19,1.19,0,0,0-.43,0,3.67,3.67,0,0,0-.55.14,5.09,5.09,0,0,0-1.07.55,10.36,10.36,0,0,0-1.1.7l0,0c-.18.14-.37.26-.55.4a4.52,4.52,0,0,0-.49.52,6.4,6.4,0,0,0-.76,1.27,11.3,11.3,0,0,0-.84,3,19.86,19.86,0,0,0-.28,3.18c0,1.08.11,2.15.15,3.22v.48l-.6.7h.08l.08,0a.7.7,0,0,0,.25-.18.73.73,0,0,0,.15-.66c-.17-.43-.33-.4-.37-.45l0,0-.08,0-.15,0h.48l.28,0h0l-.12,0-.06,0,0,0s0,0-.13.1a.7.7,0,0,0-.2.37.72.72,0,0,0,.14.59.66.66,0,0,0,.32.22h0l.06,0h0a.71.71,0,0,1-.7-.71c0-2.91,0-5.84.13-8.77.06-1.47.14-2.93.29-4.4s.32-2.93.56-4.37l.49.76-.53-.14-.25-.07h0a.65.65,0,0,0,.59-.19A.67.67,0,0,0,69.77,29h0l0,0,.05,0,0,0h0l.08.05a.67.67,0,0,1,.15.15.68.68,0,0,1-.23,1,.67.67,0,0,1-.19.07h-.34l.83-.66v.07h0a.64.64,0,0,1,0,.24A14.06,14.06,0,0,1,68,33.55a12.37,12.37,0,0,1-1.47,1.51,6.25,6.25,0,0,1-.91.61,2.2,2.2,0,0,1-1.36.27l-.11,0a1.66,1.66,0,0,1-1.09-1.1l0,.06a4.92,4.92,0,0,1-.35-1.39l-.08-1.33.65-.65h-.1a.65.65,0,0,0-.51.79.64.64,0,0,0,.34.43h0l-.13,0-.28-.05-.28,0h.07l.08,0,.19-.09.28-.44-.12-.49-.14-.14-.07,0h0l-.08,0,.11,0h0a.65.65,0,0,1,.5.64v.08a.66.66,0,0,1-.21.48l-.12.11.16-.22c-.4,1-1,1.94-1.44,2.91a11,11,0,0,1-.9,1.4,3.74,3.74,0,0,1-.61.69,2.39,2.39,0,0,1-.94.57,1.41,1.41,0,0,1-.71,0,1.57,1.57,0,0,1-.57-.3,3.51,3.51,0,0,1-.67-.7,13,13,0,0,1-.84-1.46c-.49-1-.9-1.94-1.4-2.83a10.35,10.35,0,0,0-.8-1.26,6.43,6.43,0,0,0-.47-.54,2.37,2.37,0,0,0-.5-.38,5,5,0,0,0-1.31-.43,5.75,5.75,0,0,0-1.43-.1,7.17,7.17,0,0,0-5,2.76,17.45,17.45,0,0,0-3.12,5.26,26.62,26.62,0,0,0-1.61,6,21.87,21.87,0,0,0-.11,6.16,13.89,13.89,0,0,0,.74,2.95,7.13,7.13,0,0,0,1.6,2.46l-.08-.07.59.4-.31-.1h.06l-.55.55v-.08a.5.5,0,0,1,.09-.28c2.53-3.71,3.24-8.34,4.1-12.8.41-2.25.68-4.51,1-6.78.15-1.14.3-2.29.53-3.43s.55-2.25.83-3.37a121.82,121.82,0,0,1,4.07-13.18Q55.63,10,58.63,3.76l0,.18V3.87A.43.43,0,0,1,59,3.44a.44.44,0,0,1,.18,0l.13.06h0a.38.38,0,0,0-.23,0L58.75,4l.09.24.07.07h0l0,0h0l-.06,0-.26-.13L58.35,4l-.13-.06-.06,0h0s0,.06.31-.06l.17-.52-.1-.15,0,0h0l0,0,.16.56c-1.3,2.52-2.72,5-4.24,7.4a81.06,81.06,0,0,1-4.74,7.09,58.68,58.68,0,0,1-5.58,6.48,25.59,25.59,0,0,1-3.36,2.7,11.22,11.22,0,0,1-2,1,5.63,5.63,0,0,1-2.2.44,3.75,3.75,0,0,1-3.67-2.34,4.6,4.6,0,0,1-.28-2.25,16.92,16.92,0,0,1,.42-2.13,17.89,17.89,0,0,1,1.62-4q1-1.89,2.11-3.71a78,78,0,0,1,4.94-6.94C43.51,5.21,45.34,3,47.31,1l0,.32L47,.84,46.84.62v0l0,0A.25.25,0,0,0,47,.68H47a.25.25,0,0,0,.23-.31h0v0l0,0,0,0v0h0a.27.27,0,0,1,0,.15s0,.08-.17.18a.26.26,0,0,1-.23,0l0,0,0,0L46.82.64,47,.75H47l.09,0a25.88,25.88,0,0,0-3.29,1.61c-1.07.6-2.17,1.14-3.22,1.78L34.28,8c-4.17,2.6-8.22,5.41-12.23,8.26-2,1.44-4,2.88-5.93,4.39l-5.8,4.56A59.58,59.58,0,0,0,4.79,30.1q-1.31,1.3-2.54,2.67a14.84,14.84,0,0,0-1.12,1.45A7.65,7.65,0,0,0,.66,35l-.22.41a.5.5,0,0,0-.08.16v.22a.12.12,0,0,1,0,.08s0,0,0,.11h0v0a3.26,3.26,0,0,0-.09.63,1.71,1.71,0,0,0,.12.61L.21,37.2H.27a.1.1,0,0,1,.08,0c.16.11.3.15.39,0h0Z"/><path class="cls-1" d="M67,21.22a.08.08,0,0,1,0-.06c0-.25.18-.56.67-.36h.06a2.86,2.86,0,0,0,.75.9,3.9,3.9,0,0,0,2.23.7,10,10,0,0,0,2.5-.25,20.35,20.35,0,0,0,2.47-.71c.41-.14.81-.3,1.21-.45l.75-.31.69-.24L79.54,20c1.4-.49,1-.07.17.42,0,0-.43.26-.93.53s-1,.52-1,.52l-.82.33q-.6.24-1.23.45A21.37,21.37,0,0,1,73.2,23a10.64,10.64,0,0,1-2.67.25,4.67,4.67,0,0,1-2.65-.87A3.68,3.68,0,0,1,67,21.22Z"/><path class="cls-1" d="M66.86,21.26a.3.3,0,0,1,0-.14v0a.51.51,0,0,1,.28-.47.66.66,0,0,1,.52,0h0a.09.09,0,0,1,.07,0,2.65,2.65,0,0,0,.65.78,3,3,0,0,0,.91.44,4.54,4.54,0,0,0,2,.06,21.53,21.53,0,0,0,4-1.11c.65-.25,1.28-.51,1.93-.82s1.35-.52,2-.77l.53-.19.33-.09.24,0a1,1,0,0,1,.26,0l.08,0a.88.88,0,0,1,.22.1.8.8,0,0,1,.35.45.89.89,0,0,1,0,.53,1.11,1.11,0,0,1-.09.2,1.29,1.29,0,0,1-.13.17l-.17.17-.26.21c-.17.13-.33.23-.48.33-.62.4-1.24.77-1.87,1.14l-.07,0a15,15,0,0,1-2.84,1.09,11.88,11.88,0,0,1-3.07.56,8.14,8.14,0,0,1-1.59-.14,5.27,5.27,0,0,1-1.57-.48,5.93,5.93,0,0,1-1.32-.88A4.41,4.41,0,0,1,66.86,21.26Zm.18-.08a3.06,3.06,0,0,0,1,1,3.64,3.64,0,0,0,1.31.44,4.6,4.6,0,0,0,1.35,0c.47-.07.92-.18,1.36-.28.87-.2,1.77-.57,2.67-.82.45-.12.91-.25,1.35-.42l1.38-.46-.07,0c.63-.27,1.26-.57,1.86-.88l.42-.23.16-.1h0l0,.06a.54.54,0,0,0-.06.14.8.8,0,0,0,0,.47.77.77,0,0,0,.31.41.75.75,0,0,0,.19.09h0a.55.55,0,0,0,.13,0h0l-.19,0-.48.13c-.68.2-1.36.37-2,.59s-1.34.47-2,.68a14.38,14.38,0,0,1-4.3.7,4.1,4.1,0,0,1-3.75-1.91l.07,0h-.09a.5.5,0,0,0-.38,0,.32.32,0,0,0-.16.3v0A0,0,0,0,0,67,21.18Z"/></g></g></g></g></svg>