<svg xmlns="http://www.w3.org/2000/svg" viewBox="0 0 108.82 108.82"><defs><style>.cls-1{fill:#5c2e22;}.cls-2{fill:#5e3023;}.cls-3{fill:#5d2f22;}</style></defs><title>logo-yuju-circle_1</title><g id="圖層_2" data-name="圖層 2"><g id="圖層_1-2" data-name="圖層 1"><g id="圖層_1-2-2" data-name="圖層 1-2"><g id="圖層_2-2" data-name="圖層 2-2"><g id="圖層_1-2-2-2" data-name="圖層 1-2-2"><path class="cls-1" d="M54.41,108.08a53.67,53.67,0,1,1,53.67-53.67A53.67,53.67,0,0,1,54.41,108.08Zm0-106.38a52.7,52.7,0,1,0,52.7,52.7A52.7,52.7,0,0,0,54.41,1.71Z"/><path class="cls-2" d="M54.41,108.57h0a54.16,54.16,0,1,1,54.16-54.16A54.22,54.22,0,0,1,54.41,108.57ZM1.22,54.41A53.25,53.25,0,0,0,54.41,107.6h0A53.25,53.25,0,0,1,1.22,54.41ZM54.41,2.19a52.22,52.22,0,1,0,52.22,52.22A52.28,52.28,0,0,0,54.41,2.19ZM107.6,54.41ZM54.41,1.22A53.33,53.33,0,0,1,107.6,54.41,53.25,53.25,0,0,0,54.41,1.22Z"/><path class="cls-3" d="M54.41,108.82h0a54.41,54.41,0,1,1,54.41-54.41A54.47,54.47,0,0,1,54.41,108.82ZM54.41.5a53.91,53.91,0,0,0,0,107.82v0A53.91,53.91,0,0,0,54.41.5Zm0,107.35h0A53.5,53.5,0,0,1,1,54.41h.5a53,53,0,0,0,52.94,52.94Zm0-1a52.47,52.47,0,1,1,0-104.93h0a52.47,52.47,0,0,1,0,104.93Zm0-104.43a52,52,0,1,0,52,52,52,52,0,0,0-52-52Zm52.94,52A53.08,53.08,0,0,0,54.41,1.47h0V1a53.5,53.5,0,0,1,53.44,53.44h-.5Z"/><path class="cls-2" d="M7,76.22H7a1.16,1.16,0,0,1-.15.3c-.08.1-.22.2-.52,0H6.27a1.76,1.76,0,0,1-.11-.87,2.69,2.69,0,0,1,.08-.4.22.22,0,0,1,.06-.18V75h0v-.13c0-.1.09-.19.13-.29A5.38,5.38,0,0,1,6.71,74a14.66,14.66,0,0,1,1.42-1.94,61.45,61.45,0,0,1,6.8-6.54c2.4-2,4.86-4,7.37-5.83Q29.89,54,37.78,48.82c2.62-1.72,5.28-3.39,8-5,1.36-.79,2.72-1.56,4.14-2.26.36-.17.71-.35,1.08-.51l.55-.23.15-.06h.07c.19.29-.38-.66.45.64l-.2.2c-.53.55-1,1.14-1.56,1.72q-3.08,3.53-5.83,7.33a55.66,55.66,0,0,0-4.86,7.93h0a15.92,15.92,0,0,0-1.64,5.31,4.16,4.16,0,0,0,.54,2.58,3.27,3.27,0,0,0,2.1,1.39,4.93,4.93,0,0,0,2.64-.23,10.55,10.55,0,0,0,2.47-1.29,26,26,0,0,0,4.25-3.8,70.87,70.87,0,0,0,7-9.17q1.58-2.42,3-4.92.73-1.24,1.42-2.52l.68-1.27.33-.64.17-.32c-.15-.09,1.35.65.71.35h0v.08l-.08.17a138.2,138.2,0,0,0-8.2,21.62c-.52,1.86-1,3.73-1.43,5.59s-.64,3.79-.91,5.7a97.53,97.53,0,0,1-2.07,11.46h0a24.3,24.3,0,0,1-1.86,4.95q-.16.29-.33.58l-.28.45-.17.26L48,95v.07H48l-.57-.39-.21-.21-.12-.13a6,6,0,0,1-.44-.54,8.68,8.68,0,0,1-1.18-2.44,16.61,16.61,0,0,1-.66-5.27,25.91,25.91,0,0,1,.66-5.24,25.51,25.51,0,0,1,1.69-5A16.42,16.42,0,0,1,50,71.45a9.31,9.31,0,0,1,2.11-1.71,6.33,6.33,0,0,1,5.35-.5,2.92,2.92,0,0,1,1.23.81,6.72,6.72,0,0,1,.84,1.1c1,1.53,1.53,3.2,2.42,4.59a2.77,2.77,0,0,0,.77.82.76.76,0,0,0,.84,0,3.19,3.19,0,0,0,.84-.78,9.5,9.5,0,0,0,.71-1,23.76,23.76,0,0,0,1.18-2.27l.26-.58.13-.29.12-.11v-.08c-.67-.15,1,.15.77.15h0a10.2,10.2,0,0,0,.08,1.25A4.21,4.21,0,0,0,68,74a1,1,0,0,0,.64.64,1.49,1.49,0,0,0,1-.21,5.16,5.16,0,0,0,1-.7,13.15,13.15,0,0,0,2.92-4.05l.17-.28.06-.15v-.07h0c.34.08-.75-.23.77.17l-.1.64-.18,1.28c-.12.86-.2,1.71-.28,2.58-.3,3.44-.34,6.9-.35,10.37v2.08c.7,0-1,.09-.79.06v-.39a25.16,25.16,0,0,1-.16-2.64A20.08,20.08,0,0,1,73.17,78a8.75,8.75,0,0,1,1-2.55,5.06,5.06,0,0,1,.92-1.07,4,4,0,0,1,.58-.42l.52-.36a10.08,10.08,0,0,1,1.17-.69,4.34,4.34,0,0,1,1.36-.45,1.89,1.89,0,0,1,.82.07,1.39,1.39,0,0,1,.4.21,1,1,0,0,1,.36.45v1.32a7.35,7.35,0,0,0,.58,2.38c.32.73.87,1.35,1.55,1.33a1.64,1.64,0,0,0,.52-.09,5.49,5.49,0,0,0,.55-.23,2,2,0,0,0,.84-.68,6.3,6.3,0,0,1,1-1,2.59,2.59,0,0,1,.65-.4,1.57,1.57,0,0,1,.43-.11,1,1,0,0,1,.42.06l1.28.34,1.25.32q1.25.3,2.53.54a28.37,28.37,0,0,0,5.05.53h2.59c.38,0,1.15-.1,1.74-.17s1-.13.88,0a2.09,2.09,0,0,1-.8.45,10.92,10.92,0,0,1-1.72.49l-.39.08h-.56l-1,.06A26.07,26.07,0,0,1,92.63,78c-1.67-.27-3.32-.66-4.95-1.09l-1.1-.41c-.19-.07-.54.13-.82.36a5.9,5.9,0,0,0-.79.86,2.79,2.79,0,0,1-1.12.91l-.29.13-.33.14a2.46,2.46,0,0,1-.73.14,2.08,2.08,0,0,1-1.42-.52,4.74,4.74,0,0,1-1.3-2.38,8.62,8.62,0,0,1-.28-2.61v-.14h-.06a.73.73,0,0,0-.38-.12,2.52,2.52,0,0,0-1,.23,7.47,7.47,0,0,0-1,.56l-.51.34-.25.17-.16.11-.12.08a4.42,4.42,0,0,0-1.45,1.75,13.2,13.2,0,0,0-1.1,4.72,24.53,24.53,0,0,0,.15,4.94h0c.71,0-1,.09-.79.06V81.32a88.38,88.38,0,0,1,.6-10.08L73.62,70l.1-.62v-.16c.34.08-.76-.24.77.17h0v.08l-.13.3A13.61,13.61,0,0,1,73.09,72,13.38,13.38,0,0,1,71.43,74a7.44,7.44,0,0,1-1,.85,3.25,3.25,0,0,1-1.31.55,1.63,1.63,0,0,1-.82-.09,1.6,1.6,0,0,1-.66-.5A3.19,3.19,0,0,1,67,73.47a8,8,0,0,1-.21-1.24v-.65c.34.06-.76-.19.76.13h0v.07l-.06.15-.13.29c-.34.78-.71,1.54-1.12,2.29a10.44,10.44,0,0,1-1.48,2.16,2.58,2.58,0,0,1-1.24.79,1.47,1.47,0,0,1-.85-.06,2.05,2.05,0,0,1-.65-.42,8,8,0,0,1-1.45-2.22c-.38-.76-.72-1.53-1.11-2.25a8.06,8.06,0,0,0-1.33-1.94,2.55,2.55,0,0,0-.43-.34,1.94,1.94,0,0,0-.49-.21A6.21,6.21,0,0,0,56,69.74a5.37,5.37,0,0,0-2.31.2,8.24,8.24,0,0,0-3.79,2.83A17.71,17.71,0,0,0,47.47,77,25.44,25.44,0,0,0,46,81.75a24.39,24.39,0,0,0-.51,4.92,14.83,14.83,0,0,0,.74,4.86,7.37,7.37,0,0,0,1.12,2.05l.18.22.1.11.07.07h0l.16-.26q.16-.26.29-.53a23.83,23.83,0,0,0,1.71-4.63h0A96.78,96.78,0,0,0,52,77.18c.27-1.94.53-3.84,1-5.75s1-3.77,1.45-5.65A139,139,0,0,1,62.57,44l.08-.17v-.08h0c-.63-.32.87.41.72.34l-.17.33-.34.65-.74,1.3q-.7,1.27-1.44,2.54-1.47,2.52-3.05,5a71.67,71.67,0,0,1-7,9.28,26.73,26.73,0,0,1-4.38,3.89,11.32,11.32,0,0,1-2.66,1.38,5.71,5.71,0,0,1-3.07.25A4.05,4.05,0,0,1,37.87,67a4.94,4.94,0,0,1-.57-3.06,16.63,16.63,0,0,1,1.77-5.65h0a56.47,56.47,0,0,1,4.95-8q2.76-3.83,5.83-7.39c.52-.59,1-1.18,1.59-1.75l.21-.21c.82,1.31.2.37.38.66h-.2l-.52.21-1,.49c-1.39.69-2.75,1.46-4.09,2.24-2.69,1.57-5.34,3.25-7.95,5q-7.84,5.14-15.34,10.79C20.39,62.1,17.93,64,15.55,66a60.76,60.76,0,0,0-6.73,6.51A13.93,13.93,0,0,0,7.48,74.4a4.68,4.68,0,0,0-.26.49l-.11.24v.11h0v.21a1.88,1.88,0,0,0-.06.28A1,1,0,0,0,7,76.22Z"/><path class="cls-2" d="M7.09,76.23c0,.12-.11.23-.17.35h0a.38.38,0,0,1-.36.16.69.69,0,0,1-.31-.13h0a.09.09,0,0,1-.09-.07h0a1.87,1.87,0,0,1-.13-.67,3.33,3.33,0,0,1,.1-.67h0a.33.33,0,0,1,.09-.26v-.16a.61.61,0,0,1,.1-.25l.2-.4A7.62,7.62,0,0,1,7,73.35a14.64,14.64,0,0,1,1.1-1.44q1.2-1.34,2.47-2.61A58.15,58.15,0,0,1,16,64.53l5.62-4.47c1.88-1.48,3.82-2.92,5.75-4.31,3.89-2.8,7.77-5.54,11.86-8.1l6.08-3.82c1-.63,2.1-1.18,3.14-1.76a25.58,25.58,0,0,1,3.19-1.5h.17a.23.23,0,0,1,.2.11h0a.25.25,0,0,0-.22,0c-.17.1-.14.13-.17.17a.24.24,0,0,0,0,.14h0v-.07h0a.25.25,0,0,1,.2-.3h.08a.26.26,0,0,1,.12,0l0,.06h0l.15.22.28.45a.25.25,0,0,1,0,.3h0A79.06,79.06,0,0,0,47.13,48,75.29,75.29,0,0,0,42.4,54.7q-1.07,1.75-2,3.58A16.75,16.75,0,0,0,38.79,62a15.82,15.82,0,0,0-.38,1.94,3.83,3.83,0,0,0,.22,1.87,2.71,2.71,0,0,0,1.17,1.39,3.37,3.37,0,0,0,1.81.45,7.17,7.17,0,0,0,3.65-1.3,24.3,24.3,0,0,0,3.15-2.56,56.43,56.43,0,0,0,5.31-6.24,78,78,0,0,0,4.53-6.85,81,81,0,0,0,4.07-7.16l.16.54h0l-.1-.15.17-.51c.27-.12.26,0,.3-.06H63l.14.07.26.13.26.14h.13l.07.07L64,44l-.32.44a.37.37,0,0,1-.22,0h-.08l-.12.07.6-.38v.08a.43.43,0,0,1,0,.17,123.51,123.51,0,0,0-5.18,12.26,117.84,117.84,0,0,0-3.89,12.75c-.26,1.08-.57,2.16-.79,3.22s-.35,2.17-.5,3.28c-.29,2.21-.55,4.43-1,6.64s-.83,4.39-1.38,6.59A24.93,24.93,0,0,1,50,92.3c-.22.52-.46,1-.72,1.55s-.59,1-.89,1.47L48.5,95v.07a.53.53,0,0,1-.53.53h-.06a.53.53,0,0,1-.3-.1L47,95.15l-.07,0h0a10,10,0,0,1-2.59-5.83A22.35,22.35,0,0,1,44.45,83a27,27,0,0,1,1.61-6.08,18.15,18.15,0,0,1,3.27-5.48,10.08,10.08,0,0,1,2.47-2.12,6.93,6.93,0,0,1,3.2-1,6.8,6.8,0,0,1,1.68.11,5.83,5.83,0,0,1,1.64.55,3.52,3.52,0,0,1,.74.55,7.32,7.32,0,0,1,.56.64,11.19,11.19,0,0,1,.88,1.37c.52,1,1,1.9,1.39,2.78a11.84,11.84,0,0,0,.72,1.26A2.17,2.17,0,0,0,63,76l.12.08h.07a5.31,5.31,0,0,0,1.58-2,29.21,29.21,0,0,0,1.33-2.71.57.57,0,0,1,.14-.2h0l.12-.11-.2.47v-.08l.5.62h-.35l-.14-.14-.12-.48.27-.43.18-.09h.4l.3,0,.29.06h.38l.15.1a.63.63,0,0,1,.19.33.64.64,0,0,1-.48.77h-.15l.63-.63.08,1.15a3.5,3.5,0,0,0,.25,1v.06a.33.33,0,0,0,.22.21h-.11a.85.85,0,0,0,.52-.11,4.76,4.76,0,0,0,.71-.48,11,11,0,0,0,1.24-1.29A12.39,12.39,0,0,0,73,69v.17a.65.65,0,0,1,.58-.71h0a.64.64,0,0,0-.18.07.65.65,0,0,0-.28.88l.06.1a.64.64,0,0,0,.15.15l.08,0h-.1a.66.66,0,0,1-.22-1.07.67.67,0,0,1,.17-.13.69.69,0,0,1,.43-.07h.08l.27.07.52.14a.66.66,0,0,1,.48.74c-.22,1.4-.38,2.79-.52,4.18s-.21,2.8-.26,4.2c-.1,2.81-.1,5.64-.09,8.46l-.69-.69h.36a.64.64,0,0,1,.31.22.7.7,0,0,1,.14.57.69.69,0,0,1-.19.36c-.15.13-.12.09-.14.1H72.43s-.19,0-.36-.44a.71.71,0,0,1,.15-.64.68.68,0,0,1,.24-.17h.17l-.58.68v-.31c-.06-1.1-.17-2.2-.17-3.29a20.7,20.7,0,0,1,.27-3.31c.09-.55.2-1.09.34-1.63A9.43,9.43,0,0,1,73.06,76a6,6,0,0,1,2.3-2.76h0a11.55,11.55,0,0,1,1.09-.62A6.21,6.21,0,0,1,77.76,72a5,5,0,0,1,.75-.19,2.62,2.62,0,0,1,.89,0,2.26,2.26,0,0,1,.89.35A1.71,1.71,0,0,1,81,73h0a.75.75,0,0,1,.06.27V74.5a6.61,6.61,0,0,0,.53,2.15,2.09,2.09,0,0,0,.51.73.61.61,0,0,0,.27.14h.27a1.41,1.41,0,0,0,.45-.16,1.66,1.66,0,0,0,.4-.2,1.24,1.24,0,0,0,.27-.28c.14-.18.28-.36.44-.53a5.27,5.27,0,0,1,1.09-1,2.34,2.34,0,0,1,.79-.32,1.61,1.61,0,0,1,1,0H87c1.25.33,2.51.67,3.76.91a30.13,30.13,0,0,0,3.76.64,32.25,32.25,0,0,0,3.82.14,12.93,12.93,0,0,0,1.94-.08l.91-.1.51-.06h.56A.84.84,0,0,1,103,77a.79.79,0,0,1,.07.39.74.74,0,0,1-.06.25,1,1,0,0,1-.09.16l-.11.13h0a2.92,2.92,0,0,1-1,.57c-.29.11-.53.16-.81.24-.52.14-1.07.33-1.56.41h-3.1a26.72,26.72,0,0,1-3-.24c-1-.13-1.94-.39-2.92-.58l-2.92-.63h-.07l-.78-.27-.19-.07h.08a1.36,1.36,0,0,0-.43.38l-.48.52A3.71,3.71,0,0,1,84,79.48l-.41.17a3.08,3.08,0,0,1-1.68.16,2.92,2.92,0,0,1-1.06-.45A2.59,2.59,0,0,1,80.4,79c-.12-.13-.22-.24-.32-.37a5.59,5.59,0,0,1-1-1.7c-.11-.32-.17-.6-.23-.87a8.12,8.12,0,0,1-.17-.89,10.52,10.52,0,0,1-.08-1.76l.85.85h0L79,74.1h0a1.67,1.67,0,0,0-.33,0,1.56,1.56,0,0,0-.32.12l-.39.21a12.49,12.49,0,0,0-1.58,1,3.57,3.57,0,0,0-1,1.22,11.41,11.41,0,0,0-.61,1.81,14.88,14.88,0,0,0-.5,3.75,23.79,23.79,0,0,0,.19,3.89l-.87-.77h.38a.89.89,0,0,1,.41,1.51l-.14.11h-.07a1,1,0,0,1-.3.1H72.75a1,1,0,0,1-.31-.06h-.08a.85.85,0,0,1-.33-.3.89.89,0,0,1-.12-.72.88.88,0,0,1,.38-.52.86.86,0,0,1,.36-.09l-.75.87V78.71a65.47,65.47,0,0,1,.54-7.57v-.07h0c.12-.61.26-1.23.34-1.84h0a1,1,0,0,1,1-1h-.17a.88.88,0,0,0-.54.35,1,1,0,0,0-.17.73.91.91,0,0,0,.2.43.88.88,0,0,0,.24.2h-.11a.93.93,0,0,1-.54-1,.87.87,0,0,1,.22-.45,1,1,0,0,1,.7-.31h.25l.28.08.52.15a1,1,0,0,1,.69.89h0v.08a.91.91,0,0,1-.07.35h0a14.24,14.24,0,0,1-1.63,2.92,11.66,11.66,0,0,1-2.33,2.47,4.33,4.33,0,0,1-1.66,1,2.81,2.81,0,0,1-1.16.13,2.47,2.47,0,0,1-1.18-.46,2.76,2.76,0,0,1-.78-.88,4.13,4.13,0,0,1-.41-1c-.17-.62-.21-1.15-.33-1.73v-.74a1,1,0,0,1,1-1h0a1,1,0,0,0-.45,1.74l.15.09h-.11a.94.94,0,0,1,.48-1.82h.09l.29.06.52.11a1,1,0,0,1,.77,1v.09a.88.88,0,0,1-.07.34c-.42,1-.89,1.88-1.34,2.82a11.47,11.47,0,0,1-.86,1.4q-.24.34-.51.65l-.27.31a3.54,3.54,0,0,1-1.25.9,3,3,0,0,1-.55.17,2.45,2.45,0,0,1-.62,0A2.78,2.78,0,0,1,61,77.23a9,9,0,0,1-1-1.39c-.14-.24-.27-.51-.38-.75l-.25-.5A25.06,25.06,0,0,0,58.07,72c-.13-.18-.26-.36-.4-.53l-.21-.24a2.14,2.14,0,0,0-.17-.14c-.06,0-.24-.11-.36-.19l-.64-.14a4.09,4.09,0,0,0-2.45.13,7.27,7.27,0,0,0-2.24,1.4C49,74.9,47.52,78.76,46.83,82.55a23.49,23.49,0,0,0-.33,2.92,19,19,0,0,0,0,2.92,13.82,13.82,0,0,0,.64,2.73,6,6,0,0,0,1.27,2.21l-1.52.19a21.17,21.17,0,0,0,2.22-5.83q.75-3.17,1.27-6.38c.37-2.13.57-4.29,1-6.49l.52-3.28c.22-1.08.53-2.15.8-3.23a119.92,119.92,0,0,1,4-12.63c1.54-4.13,3.26-8.19,5.16-12.16l-.09.38v-.12l.49.79-.14-.11H62l-.09-.07-.2-.25L62,43l.52-.17H63l.27.13.26.13.14.07h.07l.21.35L63.25,45c-.34-.06-.2,0-.23,0H63l1.14-.41a94,94,0,0,1-4.86,8.32,70.87,70.87,0,0,1-5.54,7.88c-1,1.25-2,2.47-3.18,3.65a27.43,27.43,0,0,1-3.72,3.2,12.07,12.07,0,0,1-2.21,1.26,7.61,7.61,0,0,1-2.54.7,5.88,5.88,0,0,1-2.69-.39,4.86,4.86,0,0,1-2.15-1.78h0a5.67,5.67,0,0,1-.66-2.09,7.09,7.09,0,0,1,.14-2.22,17.36,17.36,0,0,1,1.13-3.82,51.71,51.71,0,0,1,3.81-6.8c1.44-2.16,3-4.19,4.57-6.21a71.54,71.54,0,0,1,5.06-5.83.56.56,0,0,1,.79,0l.09.12.28.46.15.24v0h0a.58.58,0,0,1,.06.23.56.56,0,0,1-1,.4h0l-.06-.08h0a.51.51,0,0,0,.15.12.54.54,0,0,0,.5,0,.56.56,0,0,0,.34-.47v-.23h0l-.48.85h.12c-.52.18-1,.44-1.56.67l-1.54.83c-1,.56-2.06,1.08-3.06,1.69l-6,3.68c-4,2.47-7.88,5.12-11.72,7.77-1.94,1.36-3.83,2.72-5.69,4.15l-5.55,4.33a59.16,59.16,0,0,0-5.34,4.59q-1.26,1.22-2.46,2.52a11.32,11.32,0,0,0-2,2.84v.3h0l-.06.26h0a.87.87,0,0,0-.07.32Zm-.19,0a.53.53,0,0,1,0-.12,1.07,1.07,0,0,1,.07-.4H7l.06-.3v-.29H7A11.54,11.54,0,0,1,9,72.2q1.18-1.32,2.43-2.58a59.52,59.52,0,0,1,5.32-4.75l5.49-4.45C24,59,25.94,57.57,27.84,56.17c3.81-2.77,7.65-5.51,11.66-8l5.94-3.79c1-.62,2.06-1.17,3.09-1.76A22.07,22.07,0,0,1,51.76,41H52l-.48.85a.81.81,0,0,1-.08-.17v-.23A.56.56,0,0,1,51.8,41a.55.55,0,0,1,.5,0,.52.52,0,0,1,.15.12h0a.55.55,0,0,0-.71-.1.56.56,0,0,0-.27.5.55.55,0,0,0,.06.23h0l-.13-.21-.28-.45.88.1A64.09,64.09,0,0,0,47.13,47c-1.52,2-3,4.12-4.41,6.22a50.68,50.68,0,0,0-3.62,6.6,15.93,15.93,0,0,0-1,3.52A5.65,5.65,0,0,0,38,65a4.25,4.25,0,0,0,.51,1.54v0A3.3,3.3,0,0,0,40,67.79a4.4,4.4,0,0,0,1.94.26,6.07,6.07,0,0,0,2-.59,10.51,10.51,0,0,0,1.94-1.12,25.85,25.85,0,0,0,3.49-3c1-1.12,2.08-2.34,3.06-3.57A69.21,69.21,0,0,0,57.82,52c1.66-2.69,3.3-5.4,4.69-8.21l1.14-.41h0s.11,0-.23,0l-.65,1.53.11.09h-.06l-.13-.06-.26-.13-.25-.12h.24l.52-.15.27-1.14-.2-.25L62.93,43h0L63,43a.89.89,0,0,1,.49.79v.08a.89.89,0,0,1-.09.38q-2.8,5.91-5,12a120.33,120.33,0,0,0-3.86,12.45c-.26,1-.56,2.09-.79,3.15l-.52,3.21c-.38,2.11-.59,4.31-1,6.5s-.8,4.35-1.3,6.5a23,23,0,0,1-2.43,6.38h0a.93.93,0,0,1-1.51.17,7.84,7.84,0,0,1-1.75-3,15.73,15.73,0,0,1-.66-3.16,20.86,20.86,0,0,1,0-3.18A25.42,25.42,0,0,1,45,82.24a26.89,26.89,0,0,1,1.8-6,18.63,18.63,0,0,1,1.52-2.81,12.14,12.14,0,0,1,1-1.29,9.2,9.2,0,0,1,3.93-3,6,6,0,0,1,3.5-.21l.84.18a3.25,3.25,0,0,1,1,.51,5,5,0,0,1,.41.34l.29.33c.18.21.35.45.52.67a25.61,25.61,0,0,1,1.48,2.81l.34.69a5,5,0,0,0,.31.6,7.07,7.07,0,0,0,.77,1.09c.51.52.67.52,1.3.09l.17-.17.22-.26a6.74,6.74,0,0,0,.42-.54,9.51,9.51,0,0,0,.72-1.18c.42-.88.88-1.77,1.26-2.64l-.07.36v-.09l.77,1-.61-.12h-.23a1,1,0,0,0,.47-1.85h.17a1,1,0,0,1-.29,1.83h-.35l1.13-1v.56c.09.45.16,1,.25,1.37a1.71,1.71,0,0,0,.46.81.54.54,0,0,0,.28.11.88.88,0,0,0,.4-.06,2.55,2.55,0,0,0,1-.62,9.84,9.84,0,0,0,2.06-2,12.37,12.37,0,0,0,1.43-2.58l-.07.36v-.08l.69.89-.52-.15-.23-.06h.17A.93.93,0,0,0,74,68.3h.17a.9.9,0,0,1,.24.2.94.94,0,0,1,0,1.17.88.88,0,0,1-.54.35h-.48l1.14-.9v.16a1,1,0,0,1,0,.13h0c-.09.65-.23,1.28-.36,1.94v-.08q-.45,3.69-.57,7.42c-.09,2.47,0,5-.06,7.49l-.75.87a.82.82,0,0,0,.34-.14.88.88,0,0,0,.37-.52.89.89,0,0,0-.12-.72.83.83,0,0,0-.34-.3H73a.79.79,0,0,0-.27-.06h.72a.79.79,0,0,0-.26.09h-.06l-.14.11a.86.86,0,0,0-.18.24.88.88,0,0,0,.32,1.16.86.86,0,0,0,.25.11h0a.88.88,0,0,1-.87-.77,25.55,25.55,0,0,1-.19-4.14A16.67,16.67,0,0,1,73,77.94a12.77,12.77,0,0,1,.77-2,5.28,5.28,0,0,1,1.55-1.81A14.2,14.2,0,0,1,77.07,73l.5-.26a3.25,3.25,0,0,1,.61-.22,3.36,3.36,0,0,1,.66-.1,1.61,1.61,0,0,1,1,.25l-.36-.08h.11a.81.81,0,0,1,.81.81h0a8.49,8.49,0,0,0,.37,3,3.89,3.89,0,0,0,.66,1.23l.22.25a.88.88,0,0,0,.18.16,1.23,1.23,0,0,0,.46.19,1.25,1.25,0,0,0,.51,0l.25-.07.35-.15a2,2,0,0,0,1-.72l.64-.7a2.71,2.71,0,0,1,.84-.67,1.38,1.38,0,0,1,1-.17h.26l.19.07.78.28H88l2.82.62c1,.19,1.88.46,2.82.58a25.13,25.13,0,0,0,2.83.24h2.75c.52-.09,1-.25,1.44-.37.22-.07.5-.13.68-.19a1.31,1.31,0,0,0,.42-.25l-.12.14a.64.64,0,0,0-.07.13.75.75,0,0,0,0,.58.76.76,0,0,0,.22.28.6.6,0,0,0,.31.15h-.18l-.47.06-1,.1a14.22,14.22,0,0,1-2,.07,33.76,33.76,0,0,1-4-.16,31.61,31.61,0,0,1-3.89-.68c-1.3-.26-2.57-.61-3.82-1h-.24a.85.85,0,0,0-.35.14,4,4,0,0,0-.76.67,5.4,5.4,0,0,0-.35.42,2.74,2.74,0,0,1-.59.59,3.06,3.06,0,0,1-.69.37,2.66,2.66,0,0,1-.72.23l-.45.07a1.75,1.75,0,0,1-.51-.06,2.08,2.08,0,0,1-.84-.44,3.51,3.51,0,0,1-.9-1.27,8.08,8.08,0,0,1-.7-2.54V73.22l.06.28a.65.65,0,0,0-.48-.29,1.16,1.16,0,0,0-.42,0,3.57,3.57,0,0,0-.53.14,5,5,0,0,0-1,.53,10.07,10.07,0,0,0-1.07.68h0l-.53.39a4.39,4.39,0,0,0-.48.51,6.22,6.22,0,0,0-.74,1.23,11,11,0,0,0-.82,2.92,19.3,19.3,0,0,0-.27,3.09c0,1,.11,2.09.15,3.13v.47l-.58.68H73a.68.68,0,0,0,.24-.17.71.71,0,0,0,.15-.64c-.17-.42-.32-.39-.36-.44h.34l-.13.1a.68.68,0,0,0-.19.36.7.7,0,0,0,.14.57.64.64,0,0,0,.31.21h.06a.69.69,0,0,1-.68-.69c0-2.83,0-5.68.13-8.52.06-1.43.14-2.85.28-4.28s.31-2.85.54-4.25l.48.74-.52-.14-.31-.09h0a.63.63,0,0,0,.57-.18.65.65,0,0,0-.2-1.06h0l.08,0a.65.65,0,0,1,.15.15.66.66,0,0,1-.15.92l-.08,0a.65.65,0,0,1-.18.07h-.33l.81-.64v.07h0a.62.62,0,0,1,0,.23,13.66,13.66,0,0,1-2.09,3.46,12,12,0,0,1-1.39,1.53,6.07,6.07,0,0,1-.88.59,2.14,2.14,0,0,1-1.32.26h-.11a1.61,1.61,0,0,1-1.06-1.07v.06A4.78,4.78,0,0,1,67,72.87l-.08-1.29.63-.63h-.1a.63.63,0,0,0-.5.74v0a.62.62,0,0,0,.33.42h-.13l-.27,0h-.13l.18-.09.27-.43-.12-.48L67,71h0a.63.63,0,0,1,.49.62v.08a.64.64,0,0,1-.2.47l-.12.11.16-.21c-.39,1-1,1.89-1.4,2.83A10.69,10.69,0,0,1,65,76.2a3.63,3.63,0,0,1-.59.67,2.32,2.32,0,0,1-.91.55,1.37,1.37,0,0,1-.69,0,1.53,1.53,0,0,1-.55-.29,3.41,3.41,0,0,1-.65-.68A12.63,12.63,0,0,1,60.76,75c-.48-1-.87-1.89-1.36-2.75a10.06,10.06,0,0,0-.78-1.22,6.25,6.25,0,0,0-.46-.52,2.3,2.3,0,0,0-.49-.37,4.86,4.86,0,0,0-1.27-.42,5.59,5.59,0,0,0-1.39-.1,7,7,0,0,0-4.86,2.68,17,17,0,0,0-3,5.11,25.87,25.87,0,0,0-1.56,5.83,21.25,21.25,0,0,0-.11,6,13.5,13.5,0,0,0,.72,2.87,6.93,6.93,0,0,0,1.55,2.39l-.08-.07.57.39-.3-.1H48l-.53.53V95a.49.49,0,0,1,.09-.27c2.46-3.61,3.15-8.11,4-12.44.4-2.19.66-4.38,1-6.59.15-1.11.29-2.23.52-3.33s.53-2.19.81-3.28a118.39,118.39,0,0,1,4-12.81Q60.08,50,63,43.93V44a.42.42,0,0,1,.42-.42h0a.43.43,0,0,1,.17,0l.13.06h0a.37.37,0,0,0-.22,0l-.32.44.09.23.07.07h-.06L63,44.28l-.26-.13-.13-.06h-.06s0,.06.3-.06l.17-.51-.09-.14h0l.16.54c-1.26,2.45-2.64,4.86-4.12,7.19A78.78,78.78,0,0,1,54.36,58a57,57,0,0,1-5.42,6.3,24.87,24.87,0,0,1-3.27,2.62,10.9,10.9,0,0,1-1.94,1,5.47,5.47,0,0,1-2.14.43A3.64,3.64,0,0,1,38,66.07a4.47,4.47,0,0,1-.27-2.19,16.44,16.44,0,0,1,.41-2.07,17.39,17.39,0,0,1,1.57-3.89q1-1.84,2.05-3.61a75.8,75.8,0,0,1,4.8-6.74c1.71-2.17,3.48-4.28,5.39-6.29v.31l-.28-.45-.14-.21h0a.24.24,0,0,0,.11,0h.06a.24.24,0,0,0,.22-.3h0a.26.26,0,0,1,0,.15s0,.08-.17.17a.25.25,0,0,1-.22,0h0l-.06-.08.2.11h0a25.15,25.15,0,0,0-3.16,1.49c-1,.58-2.11,1.11-3.13,1.73L39.36,48c-4.05,2.53-8,5.26-11.89,8-1.94,1.4-3.89,2.8-5.76,4.27l-5.64,4.43a57.9,57.9,0,0,0-5.37,4.72q-1.27,1.26-2.47,2.59a14.42,14.42,0,0,0-1.08,1.48,7.43,7.43,0,0,0-.47.76l-.21.4a.49.49,0,0,0-.08.16v.21a.12.12,0,0,1,0,.08v.11h0a3.17,3.17,0,0,0-.09.61,1.66,1.66,0,0,0,.12.59l-.11-.06h.06a.1.1,0,0,1,.08,0c.16.11.29.15.38,0h0Z"/><path class="cls-2" d="M71.11,60.91a.08.08,0,0,1,0-.06c0-.24.17-.54.65-.35h.06a2.78,2.78,0,0,0,.73.87,3.79,3.79,0,0,0,2.17.68,9.72,9.72,0,0,0,2.43-.24,19.78,19.78,0,0,0,2.4-.69c.4-.14.79-.29,1.18-.44l.73-.3.67-.23,1.22-.4c1.36-.48,1-.07.17.41,0,0-.42.25-.9.52l-1,.51-.8.32q-.58.23-1.2.44a20.77,20.77,0,0,1-2.46.69,10.34,10.34,0,0,1-2.59.24A4.54,4.54,0,0,1,72,62,3.58,3.58,0,0,1,71.11,60.91Z"/><path class="cls-2" d="M71,61a.29.29,0,0,1,0-.14h0a.5.5,0,0,1,.27-.46.64.64,0,0,1,.51,0h.07a2.58,2.58,0,0,0,.63.76,2.92,2.92,0,0,0,.88.43,4.41,4.41,0,0,0,1.94.06,20.92,20.92,0,0,0,3.89-1.08c.63-.24,1.24-.5,1.88-.8S82.4,59.26,83,59l.52-.18.32-.09h.23a1,1,0,0,1,.25,0h.08a.86.86,0,0,1,.21.1.78.78,0,0,1,.34.44.86.86,0,0,1,0,.52,1.08,1.08,0,0,1-.09.19l-.13.17-.17.17-.25.2c-.17.13-.32.22-.47.32-.6.39-1.21.75-1.82,1.11H82A14.58,14.58,0,0,1,79.24,63a11.55,11.55,0,0,1-3,.54,7.91,7.91,0,0,1-1.55-.14A5.12,5.12,0,0,1,73.19,63a5.76,5.76,0,0,1-1.28-.86A4.29,4.29,0,0,1,71,61Zm.17-.08a3,3,0,0,0,1,1,3.54,3.54,0,0,0,1.27.43,4.47,4.47,0,0,0,1.31,0c.46-.07.89-.17,1.32-.27.85-.19,1.72-.55,2.59-.8A12.78,12.78,0,0,0,80,60.83l1.34-.45h-.07c.61-.26,1.22-.55,1.81-.86l.41-.22.16-.1h0v.06a.52.52,0,0,0-.06.14.78.78,0,0,0,0,.46.75.75,0,0,0,.3.4.73.73,0,0,0,.18.09H84l-.47.13c-.66.19-1.32.36-1.94.57s-1.3.46-1.94.66a14,14,0,0,1-4.18.68,4,4,0,0,1-3.64-1.86h-.14a.49.49,0,0,0-.37,0,.31.31,0,0,0-.16.29h0Z"/></g></g></g></g></g></svg>