<?xml version="1.0" encoding="utf-8"?>
<!-- Generator: Adobe Illustrator 21.1.0, SVG Export Plug-In . SVG Version: 6.00 Build 0)  -->
<svg version="1.1" id="圖層_1" xmlns="http://www.w3.org/2000/svg" xmlns:xlink="http://www.w3.org/1999/xlink" x="0px" y="0px"
	 viewBox="0 0 110.5 110.5" style="enable-background:new 0 0 110.5 110.5;" xml:space="preserve">
<style type="text/css">
	.st0{fill:#5C2E22;}
	.st1{fill:#5E3023;}
	.st2{fill:#5D2F22;}
</style>
<title>logo-yuju-circle</title>
<g id="圖層_1-2">
	<g id="圖層_2-2">
		<g id="圖層_1-2-2">
			<g>
				<g>
					<path class="st0" d="M55.2,108.9c-29.6,0-53.7-24-53.7-53.7s24-53.7,53.7-53.7s53.7,24,53.7,53.7
						C108.9,84.9,84.9,108.9,55.2,108.9z M55.2,2.5C26.1,2.5,2.5,26.1,2.5,55.2s23.6,52.7,52.7,52.7s52.7-23.6,52.7-52.7
						C107.9,26.1,84.3,2.6,55.2,2.5z"/>
				</g>
				<g>
					<path class="st1" d="M55.2,109.4L55.2,109.4c-29.9,0-54.2-24.3-54.2-54.2S25.4,1.1,55.2,1.1s54.2,24.3,54.2,54.2
						C109.4,85.1,85.1,109.4,55.2,109.4z M2,55.2c0,29.3,23.9,53.2,53.2,53.2c0,0,0,0,0,0C25.9,108.4,2,84.6,2,55.2z M55.2,3
						C26.4,3,3,26.4,3,55.2s23.4,52.2,52.2,52.2s52.2-23.4,52.2-52.2C107.4,26.5,84,3,55.2,3L55.2,3z M108.4,55.2L108.4,55.2
						L108.4,55.2z M55.2,2c29.3,0,53.2,23.9,53.2,53.2C108.4,25.9,84.6,2,55.2,2L55.2,2z"/>
					<path class="st2" d="M55.2,109.9L55.2,109.9c-30.1,0-54.7-24.5-54.7-54.7S25.1,0.6,55.2,0.6c30.1,0,54.7,24.5,54.7,54.7
						C109.9,85.3,85.3,109.9,55.2,109.9z M55.2,107.9v0.9c29.6,0,53.6-24.1,53.7-53.7l-0.9,0C107.9,84.3,84.3,107.9,55.2,107.9z
						 M55.2,3.5C26.7,3.5,3.5,26.7,3.5,55.2s23.2,51.7,51.7,51.7c28.5,0,51.7-23.2,51.7-51.7C106.9,26.7,83.7,3.5,55.2,3.5L55.2,3.5
						z M1.6,55.2h0.9c0-29.1,23.6-52.7,52.7-52.7l0-0.9c0,0,0,0,0,0C25.6,1.6,1.6,25.6,1.6,55.2z"/>
				</g>
			</g>
			<g>
				<path class="st1" d="M7.8,77L7.8,77c0,0.1-0.1,0.2-0.1,0.3c-0.1,0.1-0.2,0.2-0.5,0H7.1C7,77.1,6.9,76.8,7,76.5
					c0-0.1,0-0.3,0.1-0.4c0-0.1,0-0.1,0.1-0.2v-0.1l0,0v-0.1c0-0.1,0.1-0.2,0.1-0.3c0.1-0.2,0.2-0.4,0.3-0.5C8,74.1,8.4,73.5,9,72.9
					c2.1-2.4,4.4-4.5,6.8-6.5c2.4-2,4.9-4,7.4-5.8c5.1-3.8,10.2-7.4,15.5-10.9c2.6-1.7,5.3-3.4,8-5c1.4-0.8,2.7-1.6,4.1-2.3
					c0.4-0.2,0.7-0.3,1.1-0.5l0.6-0.2l0.1-0.1h0.1c0.2,0.3-0.4-0.7,0.4,0.6l-0.2,0.2c-0.5,0.6-1,1.1-1.6,1.7c-2.1,2.4-4,4.8-5.8,7.3
					c-1.8,2.5-3.5,5.2-4.9,7.9l0,0c-0.9,1.7-1.4,3.5-1.6,5.3c-0.1,0.9,0.1,1.8,0.5,2.6c0.5,0.7,1.2,1.2,2.1,1.4
					c0.9,0.2,1.8,0.1,2.6-0.2c0.9-0.3,1.7-0.8,2.5-1.3c1.6-1.1,3-2.4,4.2-3.8c2.6-2.9,4.9-5.9,7-9.2c1.1-1.6,2.1-3.3,3-4.9
					c0.5-0.8,1-1.7,1.4-2.5l0.7-1.3l0.3-0.6l0.2-0.3c-0.1-0.1,1.4,0.7,0.7,0.3l0,0v0.1l-0.1,0.2c-3.3,7-6.1,14.2-8.2,21.6
					c-0.5,1.9-1,3.7-1.4,5.6c-0.5,1.9-0.6,3.8-0.9,5.7c-0.5,3.9-1.2,7.7-2.1,11.5l0,0c-0.4,1.7-1.1,3.4-1.9,4.9
					c-0.1,0.2-0.2,0.4-0.3,0.6l-0.3,0.4l-0.2,0.3l-0.1,0.1v0.1h-0.1l-0.6-0.4L48,95.3l-0.1-0.1c-0.2-0.2-0.3-0.4-0.4-0.5
					c-0.5-0.7-0.9-1.6-1.2-2.4c-0.5-1.7-0.7-3.5-0.7-5.3c0-1.8,0.3-3.5,0.7-5.2c0.4-1.7,1-3.4,1.7-5c0.7-1.6,1.7-3.1,2.9-4.4
					c0.6-0.7,1.3-1.2,2.1-1.7c1.6-1,3.6-1.1,5.3-0.5c0.5,0.2,0.9,0.4,1.2,0.8c0.3,0.3,0.6,0.7,0.8,1.1c1,1.5,1.5,3.2,2.4,4.6
					c0.2,0.3,0.5,0.6,0.8,0.8c0.3,0.2,0.6,0.2,0.8,0c0.3-0.2,0.6-0.5,0.8-0.8c0.3-0.3,0.5-0.7,0.7-1c0.4-0.7,0.8-1.5,1.2-2.3
					l0.3-0.6l0.1-0.3l0.1-0.1v-0.1c-0.7-0.1,1,0.1,0.8,0.1l0,0c0,0.4,0,0.8,0.1,1.3c0,0.4,0.1,0.8,0.3,1.1c0.1,0.3,0.3,0.5,0.6,0.6
					c0.3,0,0.7,0,1-0.2c0.3-0.2,0.7-0.4,1-0.7c1.2-1.2,2.2-2.5,2.9-4.1l0.2-0.3l0.1-0.1V70l0,0c0.3,0.1-0.7-0.2,0.8,0.2l-0.1,0.6
					L75,72.1c-0.1,0.9-0.2,1.7-0.3,2.6c-0.3,3.4-0.3,6.9-0.3,10.4v2.1c0.7,0-1,0.1-0.8,0.1v-0.4c-0.1-0.9-0.2-1.8-0.2-2.6
					c0-1.8,0.2-3.5,0.6-5.3c0.2-0.9,0.6-1.8,1-2.5c0.3-0.4,0.6-0.8,0.9-1.1c0.2-0.2,0.4-0.3,0.6-0.4l0.5-0.4
					c0.4-0.3,0.8-0.5,1.2-0.7c0.4-0.2,0.9-0.4,1.4-0.4c0.3,0,0.6,0,0.8,0.1c0.1,0,0.3,0.1,0.4,0.2c0.2,0.1,0.3,0.3,0.4,0.4v1.3
					c0.1,0.8,0.3,1.6,0.6,2.4c0.3,0.7,0.9,1.4,1.5,1.3c0.2,0,0.3,0,0.5-0.1c0.2-0.1,0.4-0.1,0.6-0.2c0.3-0.1,0.6-0.4,0.8-0.7
					c0.3-0.4,0.6-0.7,1-1c0.2-0.2,0.4-0.3,0.7-0.4c0.1-0.1,0.3-0.1,0.4-0.1c0.1,0,0.3,0,0.4,0.1l1.3,0.3l1.3,0.3
					c0.8,0.2,1.7,0.4,2.5,0.5c1.7,0.3,3.4,0.5,5.1,0.5h2.6c0.4,0,1.1-0.1,1.7-0.2c0.6-0.1,1-0.1,0.9,0c-0.2,0.2-0.5,0.4-0.8,0.4
					c-0.6,0.2-1.1,0.4-1.7,0.5l-0.4,0.1h-0.6l-1,0.1c-1.7,0-3.4-0.1-5.1-0.4c-1.7-0.3-3.3-0.7-4.9-1.1l-1.1-0.4
					c-0.2-0.1-0.5,0.1-0.8,0.4c-0.3,0.3-0.6,0.5-0.8,0.9c-0.3,0.4-0.7,0.7-1.1,0.9l-0.3,0.1l-0.3,0.1c-0.2,0.1-0.5,0.1-0.7,0.1
					c-0.5,0-1-0.2-1.4-0.5c-0.7-0.6-1.1-1.5-1.3-2.4c-0.2-0.9-0.3-1.7-0.3-2.6v-0.1h-0.1c-0.1-0.1-0.2-0.1-0.4-0.1
					c-0.4,0-0.7,0.1-1,0.2c-0.4,0.2-0.7,0.3-1,0.6l-0.5,0.3L77,75.4l-0.2,0.1l-0.1,0.1c-0.6,0.4-1.1,1.1-1.4,1.7
					c-0.7,1.5-1,3.1-1.1,4.7c-0.1,1.6-0.1,3.3,0.1,4.9l0,0c0.7,0-1,0.1-0.8,0.1v-4.9c0-3.4,0.2-6.7,0.6-10.1l0.3-1.3l0.1-0.6V70
					c0.3,0.1-0.8-0.2,0.8,0.2l0,0v0.1l-0.1,0.3c-0.4,0.8-0.8,1.5-1.3,2.3c-0.5,0.7-1,1.4-1.7,1.9c-0.3,0.3-0.7,0.6-1,0.8
					c-0.4,0.3-0.8,0.5-1.3,0.6c-0.3,0-0.6,0-0.8-0.1c-0.3-0.1-0.5-0.3-0.7-0.5c-0.3-0.4-0.5-0.8-0.6-1.3c-0.1-0.4-0.2-0.8-0.2-1.2
					v-0.7c0.3,0.1-0.8-0.2,0.8,0.1l0,0v0.1l-0.1,0.1L68.2,73c-0.3,0.8-0.7,1.5-1.1,2.3c-0.4,0.8-0.9,1.5-1.5,2.2
					c-0.3,0.4-0.8,0.7-1.2,0.8c-0.3,0.1-0.6,0-0.8-0.1c-0.2-0.1-0.5-0.2-0.7-0.4c-0.6-0.7-1.1-1.4-1.4-2.2c-0.4-0.8-0.7-1.5-1.1-2.3
					C60,72.6,59.5,72,59,71.4c-0.1-0.1-0.3-0.2-0.4-0.3c-0.2-0.1-0.3-0.2-0.5-0.2c-0.4-0.1-0.8-0.2-1.2-0.3c-0.8-0.1-1.6,0-2.3,0.2
					c-1.5,0.6-2.8,1.5-3.8,2.8c-1,1.3-1.8,2.7-2.4,4.2c-0.6,1.5-1.1,3.1-1.4,4.7c-0.3,1.6-0.5,3.3-0.5,4.9c0,1.6,0.2,3.3,0.7,4.9
					c0.3,0.7,0.6,1.4,1.1,2.1l0.2,0.2l0.1,0.1l0.1,0.1l0,0l0.2-0.3c0.1-0.2,0.2-0.4,0.3-0.5c0.7-1.5,1.3-3,1.7-4.6l0,0
					c0.9-3.7,1.6-7.5,2.1-11.4c0.3-1.9,0.5-3.8,1-5.8c0.4-1.9,1-3.8,1.4-5.6c2.1-7.5,4.9-14.7,8.2-21.7l0.1-0.2v-0.1l0,0
					c-0.6-0.3,0.9,0.4,0.7,0.3L64,45.3l-0.3,0.7l-0.7,1.3c-0.5,0.8-0.9,1.7-1.4,2.5c-1,1.7-2,3.3-3.1,5c-2.1,3.3-4.4,6.4-7,9.3
					c-1.3,1.5-2.8,2.8-4.4,3.9c-0.8,0.6-1.7,1-2.7,1.4c-1,0.4-2,0.5-3.1,0.3c-1.1-0.2-2-0.8-2.6-1.7c-0.5-0.9-0.7-2-0.6-3.1
					c0.2-2,0.8-3.9,1.8-5.6l0,0c1.4-2.8,3.1-5.5,4.9-8c1.8-2.6,3.8-5,5.8-7.4c0.5-0.6,1-1.2,1.6-1.7l0.2-0.2
					c0.8,1.3,0.2,0.4,0.4,0.7h-0.1h-0.1l-0.5,0.2l-1,0.5c-1.4,0.7-2.8,1.5-4.1,2.2c-2.7,1.6-5.3,3.2-7.9,5
					c-5.2,3.4-10.3,7-15.3,10.8c-2.5,1.9-4.9,3.8-7.3,5.8c-2.4,2-4.7,4.2-6.7,6.5c-0.5,0.6-0.9,1.2-1.3,1.8
					c-0.1,0.2-0.2,0.3-0.3,0.5l-0.1,0.2v0.1l0,0v0.2c0,0.1,0,0.2-0.1,0.3C7.8,76.7,7.8,76.9,7.8,77z"/>
			</g>
			<g>
				<path class="st1" d="M7.9,77c0,0.1-0.1,0.2-0.2,0.3l0,0c-0.1,0.1-0.2,0.2-0.4,0.2c-0.1,0-0.2-0.1-0.3-0.1h0.1H7.1
					c0,0-0.1,0-0.1-0.1l0,0c-0.1-0.2-0.1-0.4-0.1-0.7c0-0.2,0-0.5,0.1-0.7l0,0c0-0.1,0-0.2,0.1-0.3v0.1v-0.2c0-0.1,0-0.2,0.1-0.3
					l0.2-0.4c0.1-0.3,0.3-0.5,0.5-0.8c0.3-0.5,0.7-1,1.1-1.4c0.8-0.9,1.6-1.8,2.5-2.6c1.7-1.7,3.5-3.3,5.4-4.8l5.6-4.5
					c1.9-1.5,3.8-2.9,5.8-4.3C32,53.8,35.9,51,40,48.5l6.1-3.8c1-0.6,2.1-1.2,3.1-1.8c1-0.6,2.1-1.1,3.2-1.5h0.1h0.1
					c0.1,0,0.2,0,0.2,0.1l0,0l0,0l0,0c-0.1,0-0.2,0-0.2,0c-0.2,0.1-0.1,0.1-0.2,0.2c0,0,0,0.1,0,0.1l0,0l0,0v-0.1l0,0l0,0
					c0-0.1,0.1-0.3,0.2-0.3c0,0,0,0,0,0h0.1c0,0,0.1,0,0.1,0l0,0.1l0,0l0.1,0.2l0.3,0.4c0.1,0.1,0.1,0.2,0,0.3l0,0
					c-1.9,1.9-3.6,4.1-5.3,6.3c-1.7,2.2-3.3,4.4-4.7,6.7c-0.7,1.2-1.4,2.4-2,3.6c-0.7,1.2-1.2,2.4-1.6,3.7c-0.2,0.6-0.3,1.3-0.4,1.9
					c-0.1,0.6,0,1.3,0.2,1.9c0.2,0.6,0.6,1.1,1.2,1.4c0.5,0.3,1.2,0.5,1.8,0.4c1.3-0.1,2.6-0.5,3.7-1.3c1.1-0.8,2.2-1.6,3.1-2.6
					c1.9-1.9,3.7-4,5.3-6.2c1.6-2.2,3.1-4.5,4.5-6.9c1.5-2.3,2.8-4.7,4.1-7.2l0.2,0.5l0,0l0,0l0,0l-0.1-0.1l0.2-0.5
					c0.3-0.1,0.3,0,0.3-0.1h0.1h0l0,0h0.1l0.1,0.1l0.3,0.1l0.3,0.1h0.1h0.1l0,0l0,0l0.1,0.1l0.1,0.2l-0.3,0.4c-0.1,0-0.2,0-0.2,0
					h-0.1L64,45.3l0.6-0.4V45c0,0.1,0,0.1,0,0.2c-1.9,4-3.7,8.1-5.2,12.3c-1.5,4.2-2.8,8.4-3.9,12.8c-0.3,1.1-0.6,2.2-0.8,3.2
					c-0.2,1.1-0.3,2.2-0.5,3.3c-0.3,2.2-0.6,4.4-1,6.6c-0.4,2.2-0.8,4.4-1.4,6.6c-0.3,1.1-0.7,2.2-1.1,3.2c-0.2,0.5-0.5,1-0.7,1.6
					c-0.3,0.5-0.6,1-0.9,1.5l0.1-0.3v0.1c0,0.3-0.2,0.5-0.5,0.5c0,0,0,0,0,0h-0.1c-0.1,0-0.2,0-0.3-0.1L47.9,96l-0.1,0l0,0
					c-1.5-1.6-2.4-3.7-2.6-5.8c-0.3-2.1-0.2-4.2,0.1-6.3c0.3-2.1,0.8-4.1,1.6-6.1c0.8-2,1.9-3.9,3.3-5.5c0.7-0.8,1.5-1.6,2.5-2.1
					c1-0.6,2.1-0.9,3.2-1c0.6,0,1.1,0,1.7,0.1c0.6,0.1,1.1,0.3,1.6,0.6c0.3,0.2,0.5,0.3,0.7,0.6c0.2,0.2,0.4,0.4,0.6,0.6
					c0.3,0.4,0.6,0.9,0.9,1.4c0.5,1,1,1.9,1.4,2.8c0.2,0.4,0.5,0.9,0.7,1.3c0.1,0.2,0.3,0.3,0.4,0.4c0.1,0.1,0.1,0.1,0.1,0.1H64
					c0.7-0.5,1.2-1.2,1.6-2c0.4-0.9,1-1.8,1.3-2.7c0-0.1,0.1-0.1,0.1-0.2l0,0l0.1-0.1L67,72.3v-0.1l0.5,0.6h-0.2h-0.1l0,0h-0.1
					L67,72.7l-0.1-0.5l0.3-0.4l0.2-0.1h0.1h0.3l0.3,0l0.3,0.1h0.2h0.1h0.1h0l0,0c0.1,0,0.1,0.1,0.1,0.1c0.1,0.1,0.2,0.2,0.2,0.3
					c0.1,0.3-0.1,0.7-0.5,0.8c0,0,0,0,0,0h-0.1l0.6-0.6l0.1,1.1c0,0.3,0.1,0.7,0.3,1v0.1c0,0.1,0.1,0.2,0.2,0.2h-0.1
					c0.2,0,0.4,0,0.5-0.1c0.3-0.1,0.5-0.3,0.7-0.5c0.4-0.4,0.9-0.8,1.2-1.3c0.8-0.9,1.4-2,1.9-3.1v0.2V70c0-0.4,0.2-0.7,0.6-0.7l0,0
					c-0.1,0-0.1,0-0.2,0.1c-0.3,0.2-0.4,0.6-0.3,0.9c0,0,0,0.1,0.1,0.1c0,0.1,0.1,0.1,0.1,0.1l0.1,0l0,0h-0.1l0,0
					c-0.3-0.1-0.5-0.5-0.4-0.9c0-0.1,0.1-0.1,0.1-0.2c0-0.1,0.1-0.1,0.2-0.1c0.1-0.1,0.3-0.1,0.4-0.1h0.1l0.3,0.1l0.5,0.1
					c0.3,0.1,0.5,0.4,0.5,0.7c-0.2,1.4-0.4,2.8-0.5,4.2c-0.1,1.4-0.2,2.8-0.3,4.2C75,81.4,75,84.2,75,87l-0.7-0.7h0.3h0.1l0,0
					c0.1,0,0.2,0.1,0.3,0.2c0.1,0.2,0.2,0.4,0.1,0.6c0,0.1-0.1,0.3-0.2,0.4c-0.1,0.1-0.1,0.1-0.1,0.1l0,0h-0.1h-0.1h-0.1h-0.1h-0.3
					h-0.3h-0.4h-0.1h-0.1l0,0c0,0-0.2,0-0.4-0.4c-0.1-0.2,0-0.5,0.1-0.6c0.1-0.1,0.1-0.1,0.2-0.2h0.1l0,0h0.1L72.9,87v-0.3
					c-0.1-1.1-0.2-2.2-0.2-3.3c0-1.1,0.1-2.2,0.3-3.3c0.1-0.6,0.2-1.1,0.3-1.6c0.1-0.6,0.3-1.1,0.6-1.6c0.5-1.1,1.3-2.1,2.3-2.8l0,0
					c0.4-0.2,0.7-0.4,1.1-0.6c0.4-0.3,0.9-0.5,1.3-0.7c0.2-0.1,0.5-0.1,0.7-0.2c0.3-0.1,0.6-0.1,0.9,0c0.3,0.1,0.6,0.2,0.9,0.3
					c0.3,0.2,0.6,0.5,0.7,0.8l0,0c0,0.1,0.1,0.2,0.1,0.3v1.3c0.1,0.7,0.2,1.5,0.5,2.1c0.1,0.3,0.3,0.5,0.5,0.7
					c0.1,0.1,0.2,0.1,0.3,0.1c0,0,0.2,0,0.3,0c0.2,0,0.3-0.1,0.4-0.2c0.1,0,0.3-0.1,0.4-0.2c0.1-0.1,0.2-0.2,0.3-0.3
					c0.1-0.2,0.3-0.4,0.4-0.5c0.3-0.4,0.7-0.7,1.1-1c0.2-0.2,0.5-0.3,0.8-0.3c0.3-0.1,0.7-0.1,1,0h-0.1c1.3,0.3,2.5,0.7,3.8,0.9
					c1.2,0.3,2.5,0.5,3.8,0.6c1.3,0.1,2.5,0.2,3.8,0.1c0.6,0,1.3,0,1.9-0.1l0.9-0.1l0.5-0.1h0.3c0.1,0,0.2,0,0.3,0
					c0.3,0,0.5,0.2,0.7,0.5c0.1,0.1,0.1,0.3,0.1,0.4c0,0.1,0,0.2-0.1,0.3c0,0.1-0.1,0.1-0.1,0.2c0,0-0.1,0.1-0.1,0.1l0,0
					c-0.3,0.3-0.6,0.4-1,0.6c-0.3,0.1-0.5,0.2-0.8,0.2c-0.5,0.1-1.1,0.3-1.6,0.4h-0.9h-0.7c-0.5,0-1,0-1.5,0c-1,0-2-0.1-3-0.2
					c-1-0.1-1.9-0.4-2.9-0.6l-2.9-0.6h-0.1l-0.8-0.3l-0.2-0.1h-0.1h0l0,0h0.1c0.3,0,0.2,0,0.2,0c-0.2,0.1-0.3,0.2-0.4,0.4L86.5,79
					c-0.4,0.6-1,1-1.6,1.3l-0.4,0.2c-0.5,0.2-1.1,0.3-1.7,0.2c-0.4-0.1-0.7-0.2-1.1-0.4c-0.2-0.1-0.3-0.2-0.4-0.4
					c-0.1-0.1-0.2-0.2-0.3-0.4c-0.4-0.5-0.8-1.1-1-1.7c-0.1-0.3-0.2-0.6-0.2-0.9c-0.1-0.3-0.1-0.6-0.2-0.9c-0.1-0.6-0.1-1.2-0.1-1.8
					l0.8,0.8h0l-0.5-0.1c0,0,0.1,0,0,0c-0.1,0-0.2,0-0.3,0c-0.1,0-0.2,0.1-0.3,0.1l-0.4,0.2c-0.6,0.3-1.1,0.6-1.6,1
					c-0.4,0.3-0.8,0.7-1,1.2c-0.3,0.6-0.5,1.2-0.6,1.8c-0.3,1.2-0.5,2.5-0.5,3.8c0,1.3,0,2.6,0.2,3.9l-0.9-0.8h0.3h0.1
					c0.5,0.1,0.8,0.6,0.7,1.1c0,0.2-0.1,0.3-0.2,0.4c0,0-0.1,0.1-0.1,0.1H75c-0.1,0-0.2,0.1-0.3,0.1h-0.1h-0.3h-0.3h-0.3
					c-0.1,0-0.2,0-0.3-0.1h-0.1c-0.1-0.1-0.2-0.2-0.3-0.3c-0.1-0.2-0.2-0.5-0.1-0.7c0.1-0.2,0.2-0.4,0.4-0.5
					c0.1-0.1,0.2-0.1,0.4-0.1l-0.7,0.9c0-2.5,0-5,0-7.6c0-2.5,0.3-5.1,0.5-7.6v-0.1l0,0c0.1-0.6,0.3-1.2,0.3-1.8l0,0
					c0-0.5,0.4-1,1-1h0.2h-0.2h-0.1c-0.2,0-0.4,0.2-0.5,0.3c-0.2,0.2-0.2,0.5-0.2,0.7c0,0.2,0.1,0.3,0.2,0.4
					c0.1,0.1,0.2,0.2,0.2,0.2l0,0l0,0l0,0l0,0H74l0,0c-0.1,0-0.2-0.1-0.2-0.1c-0.2-0.2-0.4-0.5-0.3-0.9c0-0.2,0.1-0.3,0.2-0.4
					c0.2-0.2,0.4-0.3,0.7-0.3h0.2h0.1l0.3,0.1l0.5,0.1c0.4,0.1,0.7,0.5,0.7,0.9l0,0v0.1c0,0.1,0,0.2-0.1,0.3l0,0c-0.4,1-1,2-1.6,2.9
					c-0.7,0.9-1.4,1.8-2.3,2.5c-0.5,0.4-1,0.8-1.7,1c-0.4,0.1-0.8,0.2-1.2,0.1c-0.4,0-0.8-0.2-1.2-0.5c-0.3-0.2-0.6-0.5-0.8-0.9
					c-0.2-0.3-0.3-0.6-0.4-1c-0.2-0.6-0.2-1.1-0.3-1.7v-0.7c0-0.5,0.4-1,1-1h0c-0.2,0-0.3,0.1-0.5,0.2c-0.4,0.3-0.5,0.9-0.2,1.3
					c0.1,0.1,0.1,0.1,0.2,0.2c0,0,0.1,0.1,0.1,0.1l0,0l0,0l0,0l0,0h-0.1l0,0c-0.5-0.2-0.7-0.8-0.5-1.3c0.1-0.3,0.3-0.5,0.6-0.5
					c0.1,0,0.3,0,0.4,0h0.1l0.3,0.1l0.5,0.1c0.5,0.1,0.8,0.5,0.8,1v0.1c0,0.1,0,0.2-0.1,0.3c-0.4,1-0.9,1.9-1.3,2.8
					c-0.3,0.5-0.5,1-0.9,1.4c-0.2,0.2-0.3,0.4-0.5,0.7L66.2,78c-0.3,0.4-0.8,0.7-1.3,0.9c-0.2,0.1-0.4,0.1-0.6,0.2
					c-0.2,0-0.4,0-0.6,0C63,79,62.3,78.7,61.9,78c-0.4-0.4-0.7-0.9-1-1.4c-0.1-0.2-0.3-0.5-0.4-0.7l-0.3-0.5
					c-0.4-0.9-0.9-1.7-1.4-2.6c-0.1-0.2-0.3-0.4-0.4-0.5l-0.2-0.2c-0.1-0.1-0.1-0.1-0.2-0.1c-0.1,0-0.2-0.1-0.4-0.2l-0.6-0.1
					c-0.8-0.2-1.7-0.2-2.4,0.1c-0.8,0.3-1.6,0.8-2.2,1.4c-2.6,2.6-4.1,6.5-4.8,10.3c-0.2,1-0.3,1.9-0.3,2.9c-0.1,1-0.1,1.9,0,2.9
					c0.1,0.9,0.3,1.8,0.6,2.7c0.3,0.8,0.7,1.6,1.3,2.2l-1.5,0.2c1-1.8,1.8-3.8,2.2-5.8c0.5-2.1,0.9-4.2,1.3-6.4
					c0.4-2.1,0.6-4.3,1-6.5l0.5-3.3c0.2-1.1,0.5-2.1,0.8-3.2c1.1-4.3,2.4-8.5,4-12.6c1.5-4.1,3.3-8.2,5.2-12.2l-0.1,0.4v-0.1
					l0.5,0.8l-0.1-0.1l0,0h-0.1l-0.1-0.1L62.5,45l0.3-1.2l0.5-0.2h0.2h0.1h0.1h0.1l0.3,0.1l0.3,0.1l0.1,0.1h0.1l0,0l0,0l0,0l0,0
					l0.2,0.3l-0.7,1.5c-0.3-0.1-0.2,0-0.2,0l0,0h-0.1l1.1-0.4c-1.5,2.9-3.1,5.6-4.9,8.3c-1.7,2.7-3.5,5.4-5.5,7.9
					c-1,1.3-2,2.5-3.2,3.7c-1.1,1.2-2.4,2.2-3.7,3.2c-0.7,0.5-1.4,0.9-2.2,1.3c-0.8,0.4-1.7,0.6-2.5,0.7C42,70.5,41,70.3,40.2,70
					c-0.9-0.4-1.6-1-2.1-1.8l0,0l0,0c-0.4-0.6-0.6-1.4-0.7-2.1c-0.1-0.7,0-1.5,0.1-2.2c0.2-1.3,0.6-2.6,1.1-3.8
					c1.1-2.4,2.4-4.6,3.8-6.8c1.4-2.2,3-4.2,4.6-6.2s3.2-4,5.1-5.8c0.2-0.2,0.6-0.2,0.8,0c0,0,0.1,0.1,0.1,0.1l0.3,0.5l0.1,0.2v0
					l0,0c0,0.1,0.1,0.2,0.1,0.2c0,0.3-0.2,0.6-0.6,0.6c-0.2,0-0.3-0.1-0.4-0.2l0,0l-0.1-0.1l0,0l0,0c0,0,0.1,0.1,0.1,0.1
					c0.2,0.1,0.3,0.1,0.5,0c0.2-0.1,0.3-0.3,0.3-0.5c0-0.3,0-0.2,0-0.2s0,0,0,0l-0.5,0.8h-0.1H53c-0.5,0.2-1,0.4-1.6,0.7l-1.5,0.8
					c-1,0.6-2.1,1.1-3.1,1.7l-6,3.7c-4,2.5-7.9,5.1-11.7,7.8c-1.9,1.4-3.8,2.7-5.7,4.1l-5.5,4.3c-1.9,1.4-3.6,3-5.3,4.6
					c-0.8,0.8-1.7,1.7-2.5,2.5C9.3,74,8.6,75,8.1,76v0.3l0,0l-0.1,0.3l0,0C8,76.7,8,76.8,8,76.9L7.9,77z M7.7,77c0,0,0-0.1,0-0.1
					c0-0.1,0-0.3,0.1-0.4l0,0l0.1-0.3v-0.3l0,0c0.5-1.1,1.2-2,1.9-2.9c0.8-0.9,1.6-1.7,2.4-2.6c1.7-1.7,3.5-3.3,5.3-4.8l5.5-4.5
					c1.8-1.5,3.7-2.9,5.6-4.3c3.8-2.8,7.6-5.5,11.7-8l5.9-3.8c1-0.6,2.1-1.2,3.1-1.8c1-0.6,2.1-1.2,3.2-1.6c0.1,0,0.1,0,0.2,0h0.1
					l-0.5,0.8c0-0.1-0.1-0.1-0.1-0.2c0,0,0,0.1,0-0.2c0-0.2,0.1-0.4,0.3-0.5c0.2-0.1,0.3-0.1,0.5,0c0.1,0,0.1,0.1,0.1,0.1l0,0l0,0
					l0,0l0,0l0,0l0,0c-0.2-0.2-0.5-0.2-0.7-0.1c-0.2,0.1-0.3,0.3-0.3,0.5c0,0.1,0,0.2,0.1,0.2l0,0l-0.1-0.2l-0.3-0.4l0.9,0.1
					c-1.7,1.8-3.3,3.8-4.9,5.8c-1.5,2-3,4.1-4.4,6.2c-1.4,2.1-2.6,4.3-3.6,6.6c-0.5,1.1-0.8,2.3-1,3.5c-0.1,0.6-0.1,1.1-0.1,1.7
					c0.1,0.5,0.2,1.1,0.5,1.5v0c0.3,0.6,0.8,1,1.4,1.3c0.6,0.2,1.3,0.3,1.9,0.3c0.7-0.1,1.4-0.3,2-0.6c0.7-0.3,1.3-0.7,1.9-1.1
					c1.3-0.9,2.4-1.9,3.5-3c1-1.1,2.1-2.3,3.1-3.6c2-2.5,3.8-5.1,5.4-7.8c1.7-2.7,3.3-5.4,4.7-8.2l1.1-0.4l0,0l0,0c0,0,0.1,0-0.2,0
					l-0.7,1.5l0.1,0.1l0,0l0,0l0,0h-0.1l-0.1-0.1l-0.3-0.1L63,45.4h-0.1l0,0H63h0.2l0.5-0.1l0.3-1.1l-0.2-0.3l-0.1-0.1l0,0l0,0
					l0.1,0.1c0.3,0.2,0.5,0.5,0.5,0.8v0.1c0,0.1,0,0.3-0.1,0.4c-1.9,3.9-3.5,8-5,12c-1.5,4.1-2.8,8.2-3.9,12.4
					c-0.3,1-0.6,2.1-0.8,3.1l-0.5,3.2c-0.4,2.1-0.6,4.3-1,6.5c-0.4,2.2-0.8,4.4-1.3,6.5c-0.5,2.2-1.3,4.4-2.4,6.4l0,0
					c-0.3,0.4-0.8,0.6-1.3,0.3c-0.1,0-0.2-0.1-0.2-0.2c-0.8-0.9-1.4-1.9-1.7-3c-0.3-1-0.5-2.1-0.7-3.2c-0.1-1.1-0.1-2.1,0-3.2
					c0.1-1,0.2-2.1,0.4-3.1c0.4-2.1,1-4.1,1.8-6c0.4-1,0.9-1.9,1.5-2.8c0.3-0.4,0.6-0.9,1-1.3c1-1.4,2.4-2.4,3.9-3
					c1.1-0.4,2.3-0.5,3.5-0.2l0.8,0.2c0.4,0.1,0.7,0.3,1,0.5c0.1,0.1,0.3,0.2,0.4,0.3l0.3,0.3c0.2,0.2,0.3,0.4,0.5,0.7
					c0.5,0.9,1,1.8,1.5,2.8l0.3,0.7c0.1,0.2,0.2,0.4,0.3,0.6c0.2,0.4,0.5,0.8,0.8,1.1c0.5,0.5,0.7,0.5,1.3,0.1l0.2-0.2l0.2-0.3
					c0.1-0.2,0.3-0.4,0.4-0.5c0.3-0.4,0.5-0.8,0.7-1.2c0.4-0.9,0.9-1.8,1.3-2.6l-0.1,0.4v-0.1l0.8,1l-0.6-0.1h-0.2l0,0
					c0.5,0,1-0.4,1-0.9c0-0.4-0.2-0.8-0.5-0.9l0,0h0H68H68l0,0c0.1,0.1,0.3,0.2,0.4,0.3c0.3,0.4,0.2,1-0.2,1.3
					c-0.1,0.1-0.3,0.2-0.5,0.2h-0.3l1.1-1v0.6c0.1,0.4,0.2,1,0.3,1.4c0.1,0.3,0.2,0.6,0.5,0.8c0.1,0.1,0.2,0.1,0.3,0.1
					c0.1,0,0.3,0,0.4-0.1c0.4-0.1,0.7-0.3,1-0.6c0.8-0.6,1.5-1.3,2.1-2c0.6-0.8,1.1-1.7,1.4-2.6l-0.1,0.4v-0.1l0.7,0.9L74.5,71
					l-0.2-0.1l0,0h0.2c0.4,0,0.8-0.3,0.9-0.8c0.1-0.3-0.1-0.7-0.3-0.9c-0.1-0.1-0.1-0.1-0.2-0.1l0,0h0H75H75l0,0
					c0.1,0.1,0.2,0.1,0.2,0.2c0.1,0.1,0.2,0.3,0.2,0.4c0,0.3,0,0.5-0.2,0.7c-0.1,0.2-0.3,0.3-0.5,0.3h-0.1h-0.4l1.1-0.9v0.2
					c0,0,0,0.1,0,0.1l0,0c-0.1,0.7-0.2,1.3-0.4,1.9v-0.1c-0.3,2.5-0.5,4.9-0.6,7.4c-0.1,2.5,0,5-0.1,7.5l-0.7,0.9
					c0.1,0,0.2-0.1,0.3-0.1c0.2-0.1,0.3-0.3,0.4-0.5c0.1-0.2,0-0.5-0.1-0.7c-0.1-0.1-0.2-0.2-0.3-0.3h-0.1c-0.1,0-0.2-0.1-0.3-0.1
					H74h0.3l0,0c-0.1,0-0.2,0-0.3,0.1H74l-0.1,0.1c-0.1,0.1-0.1,0.2-0.2,0.2c-0.2,0.4-0.1,0.9,0.3,1.2c0.1,0,0.2,0.1,0.3,0.1h0.1
					h-0.1c-0.4,0-0.8-0.3-0.9-0.8c-0.2-1.4-0.2-2.8-0.2-4.1c0-1.4,0.2-2.8,0.6-4.2c0.2-0.7,0.5-1.4,0.8-2c0.4-0.7,0.9-1.3,1.5-1.8
					c0.6-0.4,1.2-0.8,1.8-1.1l0.5-0.3c0.2-0.1,0.4-0.2,0.6-0.2c0.2-0.1,0.4-0.1,0.7-0.1c0.3,0,0.7,0.1,1,0.3l-0.4-0.1h0.1
					c0.4,0,0.8,0.4,0.8,0.8l0,0l0,0c-0.1,1,0.1,2,0.4,3c0.1,0.4,0.4,0.9,0.7,1.2l0.2,0.3c0.1,0.1,0.1,0.1,0.2,0.2
					c0.1,0.1,0.3,0.2,0.5,0.2c0.2,0,0.3,0,0.5,0c0.1,0,0.2,0,0.3-0.1l0.3-0.1c0.4-0.1,0.7-0.4,1-0.7l0.6-0.7
					c0.2-0.3,0.5-0.5,0.8-0.7c0.3-0.2,0.6-0.2,1-0.2h0.1l0,0h0h0.1l0.2,0.1l0.8,0.3h-0.1l2.8,0.6c1,0.2,1.9,0.5,2.8,0.6
					c0.9,0.1,1.9,0.2,2.8,0.2c0.5,0,1,0,1.4,0h0.7h0.8H100c0.5-0.1,1-0.3,1.4-0.4c0.2-0.1,0.5-0.1,0.7-0.2c0.2-0.1,0.3-0.1,0.4-0.3
					l-0.1,0.1c0,0-0.1,0.1-0.1,0.1c-0.1,0.2-0.1,0.4,0,0.6c0.1,0.1,0.1,0.2,0.2,0.3c0.1,0.1,0.2,0.1,0.3,0.1l0,0h-0.2l-0.5,0.1
					l-1,0.1c-0.7,0.1-1.3,0.1-2,0.1c-1.3,0-2.7,0-4-0.2c-1.3-0.1-2.6-0.4-3.9-0.7c-1.3-0.3-2.6-0.6-3.8-1h-0.1c-0.1,0-0.1,0-0.2,0
					c-0.1,0-0.2,0.1-0.3,0.1c-0.3,0.2-0.5,0.4-0.8,0.7c-0.1,0.1-0.2,0.3-0.3,0.4c-0.2,0.2-0.4,0.4-0.6,0.6c-0.2,0.2-0.4,0.3-0.7,0.4
					c-0.2,0.1-0.5,0.2-0.7,0.2l-0.4,0.1c-0.2,0-0.3,0-0.5-0.1c-0.3-0.1-0.6-0.2-0.8-0.4c-0.4-0.4-0.7-0.8-0.9-1.3
					c-0.4-0.8-0.6-1.7-0.7-2.5V74l0.1,0.3C80.4,74.2,80.2,74,80,74c-0.1,0-0.3,0-0.4,0c-0.2,0-0.4,0.1-0.5,0.1
					c-0.4,0.1-0.7,0.3-1,0.5c-0.4,0.2-0.7,0.4-1.1,0.7l0,0c-0.2,0.1-0.4,0.3-0.5,0.4c-0.2,0.2-0.3,0.3-0.5,0.5
					c-0.3,0.4-0.5,0.8-0.7,1.2c-0.4,0.9-0.7,1.9-0.8,2.9c-0.2,1-0.3,2.1-0.3,3.1c0,1,0.1,2.1,0.1,3.1v0.5l-0.6,0.7h0.1h0.1
					c0.1,0,0.2-0.1,0.2-0.2c0.2-0.2,0.2-0.4,0.1-0.6c-0.2-0.4-0.3-0.4-0.4-0.4l0,0h-0.1h-0.1h0.5h0.3l0,0h-0.1h-0.1l0,0
					c0,0,0,0-0.1,0.1c-0.1,0.1-0.2,0.2-0.2,0.4c0,0.2,0,0.4,0.1,0.6c0.1,0.1,0.2,0.2,0.3,0.2l0,0h0.1l0,0c-0.4,0-0.7-0.3-0.7-0.7
					c0-2.8,0-5.7,0.1-8.5c0.1-1.4,0.1-2.8,0.3-4.3s0.3-2.8,0.5-4.2l0.5,0.7l-0.5-0.1l-0.3-0.1l0,0c0.2,0,0.4,0,0.6-0.2
					c0.3-0.3,0.3-0.7,0-0.9c-0.1-0.1-0.1-0.1-0.2-0.1l0,0l0,0h0l0,0l0,0l0.1,0c0.1,0,0.1,0.1,0.1,0.1c0.2,0.3,0.1,0.7-0.1,0.9
					c0,0-0.1,0-0.1,0c-0.1,0-0.1,0.1-0.2,0.1h-0.3l0.8-0.6V70l0,0c0,0.1,0,0.2,0,0.2c-0.5,1.3-1.2,2.4-2.1,3.5
					c-0.4,0.5-0.9,1.1-1.4,1.5c-0.3,0.2-0.6,0.4-0.9,0.6c-0.4,0.2-0.9,0.3-1.3,0.3h-0.1c-0.5-0.2-0.9-0.6-1.1-1.1V75
					c-0.2-0.4-0.3-0.9-0.3-1.4l-0.1-1.3l0.6-0.6h-0.1c-0.3,0.1-0.6,0.4-0.5,0.7c0,0,0,0,0,0c0,0.2,0.2,0.3,0.3,0.4l0,0H68l-0.3,0
					h-0.3h0.1h0.1l0.2-0.1l0.3-0.4l-0.1-0.5l-0.1-0.1h-0.1l0,0h-0.1h0.1l0,0c0.3,0.1,0.5,0.3,0.5,0.6v0.1c0,0.2-0.1,0.3-0.2,0.5
					L67.9,73l0.2-0.2c-0.4,1-1,1.9-1.4,2.8c-0.3,0.5-0.5,0.9-0.9,1.4c-0.2,0.2-0.4,0.5-0.6,0.7c-0.3,0.3-0.6,0.4-0.9,0.6
					c-0.2,0.1-0.5,0.1-0.7,0c-0.2-0.1-0.4-0.2-0.6-0.3c-0.2-0.2-0.5-0.4-0.7-0.7c-0.3-0.5-0.6-0.9-0.8-1.4c-0.5-1-0.9-1.9-1.4-2.8
					c-0.2-0.4-0.5-0.8-0.8-1.2c-0.1-0.2-0.3-0.4-0.5-0.5c-0.1-0.1-0.3-0.3-0.5-0.4c-0.4-0.2-0.8-0.3-1.3-0.4
					c-0.5-0.1-0.9-0.1-1.4-0.1c-1.9,0.2-3.7,1.2-4.9,2.7c-1.3,1.5-2.3,3.2-3,5.1c-0.7,1.9-1.3,3.8-1.6,5.8c-0.3,2-0.4,4-0.1,6
					c0.1,1,0.4,1.9,0.7,2.9c0.3,0.9,0.9,1.7,1.6,2.4l-0.1-0.1l0.6,0.4l-0.3-0.1h0.1l-0.5,0.5v-0.3c0-0.1,0-0.2,0.1-0.3
					c2.5-3.6,3.1-8.1,4-12.4c0.4-2.2,0.7-4.4,1-6.6c0.1-1.1,0.3-2.2,0.5-3.3c0.2-1.1,0.5-2.2,0.8-3.3c1.1-4.3,2.4-8.6,4-12.8
					c1.5-4.2,3.3-8.3,5.2-12.4v0.2v-0.1c0-0.2,0.2-0.4,0.4-0.4l0,0c0.1,0,0.1,0,0.2,0l0.1,0.1l0,0c-0.1,0-0.2,0-0.2,0L64,44.9
					l0.1,0.2l0.1,0.1l0,0l0,0l0,0h-0.1l-0.3-0.1L63.6,45l-0.1-0.1h-0.1l0,0c0,0,0,0.1,0.3-0.1l0.2-0.5l-0.1-0.1l0,0l0,0l0,0l0.2,0.5
					c-1.3,2.4-2.6,4.9-4.1,7.2c-1.4,2.4-3,4.7-4.6,6.9c-1.7,2.2-3.5,4.3-5.4,6.3c-1,1-2.1,1.8-3.3,2.6c-0.6,0.4-1.3,0.7-1.9,1
					c-0.7,0.3-1.4,0.4-2.1,0.4c-1.6,0.1-3-0.8-3.6-2.3c-0.3-0.7-0.4-1.4-0.3-2.2c0.1-0.7,0.2-1.4,0.4-2.1c0.4-1.4,0.9-2.7,1.6-3.9
					c0.6-1.2,1.3-2.4,2.1-3.6c1.5-2.3,3.1-4.6,4.8-6.7c1.7-2.2,3.5-4.3,5.4-6.3v0.3L52.5,42l-0.1-0.2l0,0l0,0c0,0,0.1,0,0.1,0h0.1
					c0.1,0,0.2-0.1,0.2-0.3c0,0,0,0,0,0l0,0l0,0l0,0l0,0l0,0l0,0c0,0,0,0.1,0,0.1c0,0,0,0.1-0.2,0.2c-0.1,0-0.2,0-0.2,0l0,0l0,0
					l-0.1-0.1l0.2,0.1h-0.1h0.1c-1.1,0.4-2.1,0.9-3.2,1.5c-1,0.6-2.1,1.1-3.1,1.7l-6.1,3.8c-4.1,2.5-8,5.3-11.9,8
					c-1.9,1.4-3.9,2.8-5.8,4.3l-5.6,4.4c-1.9,1.5-3.7,3-5.4,4.7C10.7,71.1,9.8,72,9,72.9c-0.4,0.5-0.8,1-1.1,1.5
					c-0.2,0.2-0.3,0.5-0.5,0.8l-0.2,0.4c0,0-0.1,0.1-0.1,0.2v0.2c0,0,0,0.1,0,0.1c0,0,0,0,0,0.1l0,0l0,0c0,0.2-0.1,0.4-0.1,0.6
					c0,0.2,0,0.4,0.1,0.6l-0.1-0.1h0.1c0,0,0.1,0,0.1,0c0.2,0.1,0.3,0.1,0.4,0l0,0L7.7,77z"/>
			</g>
			<g>
				<path class="st1" d="M71.9,61.7C71.9,61.7,71.9,61.7,71.9,61.7c0-0.3,0.2-0.6,0.7-0.4h0.1c0.2,0.3,0.4,0.6,0.7,0.9
					c0.6,0.4,1.4,0.7,2.2,0.7c0.8,0,1.6-0.1,2.4-0.2c0.8-0.2,1.6-0.4,2.4-0.7c0.4-0.1,0.8-0.3,1.2-0.4l0.7-0.3l0.7-0.2l1.2-0.4
					c1.4-0.5,1-0.1,0.2,0.4c0,0-0.4,0.3-0.9,0.5c-0.5,0.3-1,0.5-1,0.5l-0.8,0.3c-0.4,0.2-0.8,0.3-1.2,0.4c-0.8,0.3-1.6,0.5-2.5,0.7
					c-0.9,0.2-1.7,0.3-2.6,0.2c-0.9,0-1.8-0.3-2.6-0.8C72.5,62.5,72.1,62.2,71.9,61.7z"/>
			</g>
			<g>
				<path class="st1" d="M71.8,61.8c0,0,0-0.1,0-0.1l0,0c0-0.2,0.1-0.4,0.3-0.5c0.2-0.1,0.3-0.1,0.5,0l0,0c0,0,0,0,0.1,0
					c0.2,0.3,0.4,0.5,0.6,0.8c0.3,0.2,0.6,0.3,0.9,0.4c0.6,0.2,1.3,0.2,1.9,0.1c1.3-0.2,2.6-0.6,3.9-1.1c0.6-0.2,1.2-0.5,1.9-0.8
					c0.6-0.3,1.3-0.5,1.9-0.7l0.5-0.2l0.3-0.1h0.2c0.1,0,0.2,0,0.3,0h0.1c0.1,0,0.1,0.1,0.2,0.1c0.2,0.1,0.3,0.3,0.3,0.4
					c0.1,0.2,0.1,0.3,0,0.5c0,0.1-0.1,0.1-0.1,0.2c0,0.1-0.1,0.1-0.1,0.2l-0.2,0.2l-0.3,0.2c-0.2,0.1-0.3,0.2-0.5,0.3
					c-0.6,0.4-1.2,0.7-1.8,1.1h-0.1c-0.9,0.4-1.8,0.8-2.8,1.1c-1,0.3-2,0.5-3,0.5c-0.5,0-1,0-1.5-0.1c-0.5-0.1-1-0.2-1.5-0.5
					c-0.5-0.2-0.9-0.5-1.3-0.9C72.4,62.6,72.1,62.2,71.8,61.8z M72,61.7c0.2,0.4,0.6,0.7,1,1c0.4,0.2,0.8,0.4,1.3,0.4
					c0.4,0.1,0.9,0.1,1.3,0c0.5-0.1,0.9-0.2,1.3-0.3c0.8-0.2,1.7-0.6,2.6-0.8c0.4-0.1,0.9-0.2,1.3-0.4l1.3-0.4h-0.1
					c0.6-0.3,1.2-0.6,1.8-0.9l0.4-0.2l0.2-0.1l0,0v0.1c0,0,0,0.1-0.1,0.1c0,0.1,0,0.3,0,0.5c0.1,0.2,0.2,0.3,0.3,0.4
					c0.1,0,0.1,0.1,0.2,0.1l0,0c0,0,0.1,0,0.1,0l0,0h-0.2l-0.5,0.1c-0.7,0.2-1.3,0.4-1.9,0.6c-0.6,0.2-1.3,0.5-1.9,0.7
					c-1.4,0.4-2.8,0.7-4.2,0.7c-1.5,0.1-2.9-0.6-3.6-1.9h0.1h-0.2c-0.1,0-0.3,0-0.4,0C72,61.4,72,61.5,72,61.7L72,61.7L72,61.7z"/>
			</g>
		</g>
	</g>
</g>
</svg>
