<?xml version="1.0" encoding="utf-8"?>
<!-- Generator: Adobe Illustrator 21.1.0, SVG Export Plug-In . SVG Version: 6.00 Build 0)  -->
<svg version="1.1" id="圖層_1" xmlns="http://www.w3.org/2000/svg" xmlns:xlink="http://www.w3.org/1999/xlink" x="0px" y="0px"
	 viewBox="0 0 15.9 17.3" style="enable-background:new 0 0 15.9 17.3;" xml:space="preserve">
<style type="text/css">
	.st0{fill:#895737;}
</style>
<title>to_front</title>
<g id="圖層_2">
	<g id="圖層_1-2">
		<path class="st0" d="M5.6,6.8l6.1-6.1c1-1,2.6-1,3.5,0s1,2.6,0,3.5l-4.3,4.3l4.3,4.4c1,1,1,2.6,0,3.5c-1,1-2.6,1-3.5,0l-6.1-6.1
			C5.1,10,4.8,9.3,4.8,8.6C4.8,8,5.1,7.3,5.6,6.8z"/>
		<path class="st0" d="M1.5,17.3c0.8,0,1.5-0.7,1.5-1.5V1.5C3,0.7,2.3,0,1.5,0S0,0.7,0,1.5v14.3C0,16.6,0.7,17.3,1.5,17.3z"/>
	</g>
</g>
</svg>
