<?xml version="1.0" encoding="utf-8"?>
<!-- Generator: Adobe Illustrator 21.1.0, SVG Export Plug-In . SVG Version: 6.00 Build 0)  -->
<svg version="1.1" id="圖層_1" xmlns="http://www.w3.org/2000/svg" xmlns:xlink="http://www.w3.org/1999/xlink" x="0px" y="0px"
	 viewBox="0 0 15.9 17.3" style="enable-background:new 0 0 15.9 17.3;" xml:space="preserve">
<style type="text/css">
	.st0{fill:#895737;}
</style>
<title>to_last</title>
<g id="圖層_2">
	<g id="圖層_1-2">
		<path class="st0" d="M10.3,6.8L4.3,0.8c-1-1-2.6-1-3.5,0s-1,2.6,0,3.5l4.3,4.3L0.7,13c-1,1-1,2.6,0,3.5c1,1,2.6,1,3.5,0l6.1-6.1
			c0.5-0.5,0.7-1.1,0.7-1.8C11.1,8,10.8,7.3,10.3,6.8z"/>
		<path class="st0" d="M14.4,17.3c-0.8,0-1.5-0.7-1.5-1.5V1.5c0-0.8,0.7-1.5,1.5-1.5s1.5,0.7,1.5,1.5v14.3
			C15.9,16.6,15.2,17.3,14.4,17.3z"/>
	</g>
</g>
</svg>
